<svg width="457" height="77" fill="none" xmlns="http://www.w3.org/2000/svg"><path d="M26.57 47.887c.62-3.572 1.152-6.672 2.658-13.197-3.277-2.746-6.407-5.167-9.743-8.532a121.721 121.721 0 00-11.337 4.694 57.334 57.334 0 00-1.682 13.433 85.63 85.63 0 009.034 7.971c3.454-1.564 5.55-2.361 10.923-4.37h.148zm-9.978 16.179a35.19 35.19 0 01-2.627-10.54 85.622 85.622 0 01-8.857-7.794A16.77 16.77 0 000 50.19a35.723 35.723 0 005.196 11.1 54.507 54.507 0 008.148 5.905 25.056 25.056 0 013.248-3.13zm59.873-28.254a41.067 41.067 0 00-2.952-15.5 23.325 23.325 0 00-2.952-4.635 5.905 5.905 0 01-2.274 4.133 41.331 41.331 0 011.093 12.666 27.251 27.251 0 014.428 8.857 7.528 7.528 0 002.628-4.576V35.9l.03-.09zM14.053 68.376a51.126 51.126 0 01-7.971-5.52A4.724 4.724 0 007.38 65.04a45.279 45.279 0 004.428 3.66 41.341 41.341 0 005.344 3.307c1.712.798 3.986 1.801 5.905 2.45 0 0-5.078-2.951-6.17-3.69-1.093-.738-2.805-2.332-2.805-2.332l-.03-.059zm53.614-13.433a47.237 47.237 0 005.02-12.282 29.848 29.848 0 00-4.784-8.561A82.272 82.272 0 0158.25 39a84.562 84.562 0 01-4.133 12.755 29.528 29.528 0 014.93 7.292 58.748 58.748 0 008.65-3.986l-.029-.118zm-17.92 14.083a57.035 57.035 0 007.262-8.857 30.23 30.23 0 00-5.107-7.027c-3.868 1.358-5.905 2.362-12.134 4.37-2.008 5.904-2.333 7.203-2.953 9.388a21.848 21.848 0 014.813 4.665c7.47-2.244 7.971-2.48 8.09-2.48l.029-.06zm18.156-8.296a40.713 40.713 0 008.415-21.966 7.529 7.529 0 01-2.51 4.222 45.791 45.791 0 01-5.019 12.252A12.754 12.754 0 0166.723 62c.454-.4.888-.824 1.299-1.27h-.119zM36.55 76.495a23.412 23.412 0 003.631-4.37 24.623 24.623 0 00-4.99-4.428 65.957 65.957 0 00-7.085 2.687 12.87 12.87 0 004.074 5.904c1.413.323 2.87.413 4.31.266l.06-.059zm18.865-5.403a43.396 43.396 0 009.98-8 11.455 11.455 0 001.77-6.584 70.858 70.858 0 01-8.502 3.838 56.538 56.538 0 01-8.001 8.857 17.713 17.713 0 01-2.096 4.605 30.71 30.71 0 006.702-2.539l.147-.177zm-18.127 5.58a26.57 26.57 0 009.95-2.657 14.757 14.757 0 001.623-3.631c-2.952.915-2.952.915-7.47 2.214 0 0-2.39 2.391-4.014 3.868l-.09.206z" fill="url(#paint0_radial_107_32)"/><path d="M69.617 14.2A37.35 37.35 0 0062 4.607 43.964 43.964 0 0053.88 0c0 .709-.207 1.565-.325 2.42a27.28 27.28 0 015.285 8.858 78.924 78.924 0 018.68 6.997c1.683-1.801 2.42-3.16 2.184-4.015l-.088-.06zm-1.92 18.276a43.933 43.933 0 00-.885-12.725 84.726 84.726 0 00-8.857-7.233 66.702 66.702 0 01-8.266 4.015 84.774 84.774 0 01-1.152 12.223 108.348 108.348 0 019.418 8.59 82.875 82.875 0 009.684-4.93l.059.06zm-15.912 19.16A92.119 92.119 0 0055.8 38.823a128.134 128.134 0 00-9.684-8.65c-3.602 1.299-3.602 1.299-13.787 4.842-1.004 4.37-1.978 8.502-2.952 13.197 6.347 4.87 8.502 6.701 9.624 7.587 4.488-1.447 8.12-2.569 12.666-4.163h.118zM34.632 66.723c.56-2.598 1.033-3.986 2.568-9.566l-10.126-7.676c-4.665 1.712-7.174 2.657-10.776 4.28a35.752 35.752 0 002.096 10.423c2.952 1.742 4.133 2.568 8.857 5.255 2.42-1.063 4.93-2.008 7.47-2.953l-.09.237zm-8.178 3.395c-2.54-1.417-5.373-2.953-8.857-5.049a29.004 29.004 0 00-2.953 2.953 27.16 27.16 0 008.976 6.229 52.547 52.547 0 007.35 1.86 8.208 8.208 0 01-2.243-2.155 30.888 30.888 0 01-2.155-3.72l-.118-.118z" fill="url(#paint1_radial_107_32)"/><path d="M35.043 76.23a11.07 11.07 0 01-2.775-.385 12.489 12.489 0 01-3.78-5.343 70.129 70.129 0 016.584-2.45 25.836 25.836 0 014.606 3.985 25.625 25.625 0 01-3.336 4.015h-1.3v.177zm3.336-.237c1.388-1.27 2.952-2.805 3.307-3.13l3.572-1.003 3.218-1.004a20.42 20.42 0 01-1.24 2.952 24.975 24.975 0 01-8.857 2.185zm10.983-2.952a16.54 16.54 0 001.623-3.514 57.924 57.924 0 007.883-8.857 79.881 79.881 0 007.971-3.542 11.544 11.544 0 01-1.741 5.904 44.081 44.081 0 01-9.92 7.824 26.574 26.574 0 01-5.757 2.155l-.06.03zm-31.413-.975l-.856-.383a44.28 44.28 0 01-5.108-3.278 37.501 37.501 0 01-4.222-3.454l-.472-.531a55.38 55.38 0 006.672 4.399 53.839 53.839 0 002.628 2.362c.424.336.88.632 1.358.885zm23.766-1.003a24.687 24.687 0 00-4.546-4.4l2.952-8.856a137.727 137.727 0 008.237-2.953l3.66-1.299a29.11 29.11 0 014.724 6.584 56.564 56.564 0 01-7.055 8.62l-7.795 2.363-.177-.06zm-28.43-4.4a52.246 52.246 0 01-7.824-5.58A35.78 35.78 0 01.412 50.19a16.355 16.355 0 014.665-4.104 86.595 86.595 0 008.562 7.558 32.477 32.477 0 002.538 10.126 16.958 16.958 0 00-2.214 2.156l-.679.738zm54.913-6.79c.543-1.446.842-2.972.885-4.517a43.312 43.312 0 004.99-12.163 9.949 9.949 0 001.683-2.008 40.417 40.417 0 01-7.558 18.688zm-8.857-1.387a30.144 30.144 0 00-4.577-6.79 76.174 76.174 0 003.986-12.43 71.246 71.246 0 009.152-4.724 29.08 29.08 0 014.429 8.208 47.738 47.738 0 01-4.93 11.986 69.579 69.579 0 01-8.12 3.75h.06zm-43.783-6.584A86.467 86.467 0 016.7 44.226a56.773 56.773 0 011.623-13.02c3.838-1.683 6.436-2.805 11.042-4.635 3.277 3.159 6.2 5.61 9.3 8.207-1.447 6.348-2.096 9.507-2.569 12.873a103.306 103.306 0 00-10.54 4.251zm58.456-11.278a29.14 29.14 0 00-4.163-8.148A42.43 42.43 0 0068.7 19.958a6.554 6.554 0 001.977-3.366 19.303 19.303 0 012.333 4.074 40.713 40.713 0 012.952 15.323v.856a6.672 6.672 0 01-2.007 3.809l.059-.03z" fill="url(#paint2_radial_107_32)"/><path d="M29.789 75.491a50.59 50.59 0 01-5.905-1.653 26.956 26.956 0 01-8.857-5.905l.768-.679c.56-.59 1.033-1.092 1.8-1.771 3.278 1.978 5.905 3.513 8.474 4.871a25.838 25.838 0 002.45 3.69c.394.508.818.991 1.27 1.447zm-2.539-6.465c-4.488-2.598-5.905-3.395-8.503-5.078a35.072 35.072 0 01-2.007-9.98c3.424-1.505 5.904-2.509 10.333-4.103l5.403 4.104 4.31 3.188-1.122 3.986c-.62 2.214-.974 3.454-1.358 5.108-2.332.797-4.783 1.653-7.056 2.775zm11.81-13.758l-.62-.473c-1.27-1.062-3.662-2.952-8.858-6.849.886-4.546 1.801-8.562 2.776-12.754 9.83-3.425 9.978-3.513 13.403-4.724a125.275 125.275 0 019.359 8.355 90.208 90.208 0 01-3.897 12.4c-2.952 1.063-5.55 1.89-8.296 2.775l-3.868 1.27zm18.835-18.482a106.982 106.982 0 00-9.182-8.355 79.43 79.43 0 001.034-11.81 65.396 65.396 0 007.971-3.748 83.849 83.849 0 018.532 6.908c.88 4.05 1.158 8.209.827 12.34a87.528 87.528 0 01-9.24 4.695l.058-.03zm9.507-19.072a75.765 75.765 0 00-8.355-6.672 26.306 26.306 0 00-5.167-8.71c.038-.485.107-.969.207-1.446V.532a42.718 42.718 0 017.44 4.37 36.167 36.167 0 017.735 9.447c.118.413-.118 1.623-1.86 3.365z" fill="url(#paint3_radial_107_32)"/><path opacity=".1" d="M34.364 66.369a76.297 76.297 0 00-7.115 2.657c-4.488-2.598-5.905-3.395-8.503-5.078a35.072 35.072 0 01-2.008-9.98c3.425-1.505 5.905-2.509 10.334-4.103l5.402 4.104 4.31 3.188-1.121 3.986c-.561 2.303-.915 3.543-1.3 5.226zm13.964-11.574c-2.125.798-4.34 1.654-8.207 2.953-1.801 5.58-2.214 6.938-2.952 8.857a28.171 28.171 0 014.162 3.808 52.52 52.52 0 0013.729-12.93 34.93 34.93 0 00-3.189-3.986l-3.543 1.298zM15.853 67.403l-.738.768a26.573 26.573 0 008.827 5.638 52.565 52.565 0 005.905 1.565 15.8 15.8 0 01-1.181-1.27 27.884 27.884 0 01-2.45-3.72c-2.451-1.357-5.197-2.951-8.474-4.87a12.126 12.126 0 00-1.771 1.889h-.118zM58.07 36.786c2.952-1.387 5.108-2.361 7.322-3.602.566-3.296.852-6.634.856-9.978v-3.72a86.243 86.243 0 00-8.385-6.643 65.382 65.382 0 01-7.97 3.75 79.707 79.707 0 01-1.152 11.809 103.344 103.344 0 019.24 8.355l.09.03zm3.543-31.944a42.932 42.932 0 00-7.499-4.31v.354a8.537 8.537 0 01-.207 1.447 26.394 26.394 0 015.196 8.857 83.851 83.851 0 016.702 5.225 55.27 55.27 0 00-1.771-9.063c-.768-.738-1.565-1.506-2.48-2.303l.059-.207zM45.908 30.468c-3.366 1.21-3.573 1.3-13.404 4.724-.974 4.192-1.89 8.208-2.775 12.754 5.048 3.868 7.44 5.905 8.857 6.85l.62.472 3.985-1.27c2.746-.885 5.314-1.712 8.326-2.775a90.087 90.087 0 003.867-12.4 125.283 125.283 0 00-9.477-8.355zM6.817 44.285a87.336 87.336 0 008.858 7.765c3.306-1.476 5.402-2.362 10.54-4.252.59-3.454 1.121-6.524 2.568-12.813a227.387 227.387 0 01-9.3-8.207c-4.606 1.771-7.204 2.952-10.923 4.576a56.095 56.095 0 00-1.742 12.931zM35.073 68.23c-2.952.974-4.487 1.564-6.583 2.48a13.581 13.581 0 002.952 4.753 49.743 49.743 0 007.706-3.661 32.262 32.262 0 00-4.075-3.72v.148zm23.62-28.815a83.466 83.466 0 01-3.987 12.43 92.2 92.2 0 012.333 2.951 57.099 57.099 0 007.705-18.274c-1.653.708-3.395 1.535-6.081 2.745l.03.148zM17.948 72.067a17.707 17.707 0 01-1.535-1.004c-.975-.827-2.392-2.126-2.598-2.362a53.144 53.144 0 01-6.673-4.399l.473.531a36.576 36.576 0 004.37 3.573 42.458 42.458 0 005.166 3.277l.797.384zm-4.724-5.403l.738-.65a16.941 16.941 0 012.214-2.155 32.478 32.478 0 01-2.538-10.156 86.296 86.296 0 01-8.562-7.528A15.913 15.913 0 00.412 50.19a35.782 35.782 0 005.049 10.805 52.26 52.26 0 007.823 5.669h-.059z" fill="#F1F2F3"/><path opacity=".1" d="M55.532 34.336c-2.214-2.096-4.163-3.75-6.731-5.905a79.09 79.09 0 001.092-11.81 65.396 65.396 0 007.971-3.748c1.431.96 2.81 1.995 4.134 3.1a52.11 52.11 0 01-6.466 18.363zM54.115.532v.354a8.537 8.537 0 01-.207 1.447 26.394 26.394 0 015.196 8.857c1.034.767 1.979 1.505 3.1 2.303a53.19 53.19 0 00.207-4.872V5.67l-.738-.68A43.756 43.756 0 0054.115.533zm-39.118 60.08a34.196 34.196 0 01-1.358-6.88 86.595 86.595 0 01-8.562-7.557A16.357 16.357 0 00.412 50.19c1 3.68 2.595 7.17 4.724 10.333 1.624 0 3.247.207 4.871.207 1.624 0 3.336.03 4.99-.118zM6.819 44.285a87.336 87.336 0 008.857 7.765c3.306-1.476 5.402-2.362 10.54-4.252.59-3.454 1.121-6.524 2.568-12.813a227.387 227.387 0 01-9.3-8.207c-4.606 1.771-7.204 2.952-10.923 4.576a56.095 56.095 0 00-1.742 12.931zm25.774-8.857c-.975 4.193-1.89 8.208-2.776 12.754a425.23 425.23 0 017.056 5.492 52.433 52.433 0 0016.858-16.15c-2.096-2.007-4.104-3.838-7.764-6.82-3.366.975-3.573 1.063-13.493 4.488l.119.236zm-5.55 14.762c-4.4 1.624-6.91 2.598-10.334 4.104a50.867 50.867 0 001.004 6.022 51.994 51.994 0 0016.297-5.284l-1.536-1.034-5.432-3.808z" fill="#F1F2F3"/><path d="M123.171 8.178l-3.897 21.965c0 .325-.177.413-.472.413h-.709c-.325 0-.384 0-.325-.413l2.599-14.762a76.848 76.848 0 011.151-5.343c-1.092 1.653-1.978 2.952-3.189 4.576l-7.38 10.097a.681.681 0 01-.591.325h-.384c-.295 0-.413 0-.502-.325l-3.985-10.245c-.561-1.446-1.034-2.952-1.506-4.428a89.031 89.031 0 01-.768 5.343l-2.598 14.762c0 .325 0 .443-.472.443h-.65c-.295 0-.354 0-.295-.443l3.868-21.936c0-.324 0-.413.443-.413h.472c.354 0 .443 0 .532.354l5.904 15.087 11.16-15.087c.207-.265.325-.354.62-.354h.649s.325.059.325.384zm7.883-.413h.65c.295 0 .384 0 .354.413l-3.838 21.965c0 .325-.207.414-.502.414h-.768c-.324 0-.383 0-.324-.414l3.956-21.965c.088-.325.088-.413.472-.413zm23.207 8.561l-1.033 5.905a9.835 9.835 0 01-10.658 8.326h-6.614c-.295 0-.354 0-.295-.443l3.956-21.847c0-.325 0-.414.443-.414h6.554c5.846-.088 8.562 3.277 7.647 8.473zm-8.001-7.174h-5.462l-3.513 19.958h5.491a8.325 8.325 0 008.857-7.086l1.034-5.904c.856-4.31-1.358-6.968-6.377-6.968h-.03zm23.235-1.83a6.613 6.613 0 017.204 4.9c0 .267 0 .414-.266.503l-.59.295c-.325 0-.414 0-.502-.207a5.52 5.52 0 00-5.905-3.985c-4.104 0-6.79 1.594-7.292 4.664-.768 3.661 2.598 4.458 6.17 4.842 3.573.384 7.647 1.476 6.791 6.407-.916 4.133-3.868 6.14-9.477 6.14a6.822 6.822 0 01-7.735-5.58c0-.324 0-.442.324-.56l.65-.236c.325 0 .384 0 .502.265a5.698 5.698 0 006.377 4.753c4.635 0 7.233-1.594 7.853-4.989.62-3.395-2.569-4.31-5.905-4.724-3.985-.472-8.001-1.594-7.174-6.554.679-3.897 3.897-5.934 8.975-5.934zm22.613 0c5.58 0 8.119 3.16 7.262 7.971l-1.387 7.824a9.065 9.065 0 01-9.979 7.706c-5.668 0-8.207-3.13-7.322-7.972l1.388-7.794a9.238 9.238 0 0110.038-7.735zm-.207 1.535a7.53 7.53 0 00-8.296 6.495l-1.388 7.795c-.708 4.103 1.388 6.524 5.905 6.524a7.587 7.587 0 008.237-6.524l1.447-7.942c.826-4.074-1.24-6.348-5.905-6.348zm35.635-.679l-3.867 21.965c0 .325-.178.414-.473.414h-.649c-.266 0-.355 0-.296-.413l2.599-14.762a80.697 80.697 0 011.151-5.344 48.276 48.276 0 01-3.189 4.724L215.343 24.8a.686.686 0 01-.59.325h-.414c-.295 0-.413 0-.472-.325l-4.015-10.245a137.663 137.663 0 01-1.506-4.576c-.177 1.89-.472 3.602-.768 5.314l-2.568 14.762c0 .325-.177.443-.502.443h-.62c-.325 0-.384 0-.325-.443l3.868-21.936c0-.325 0-.413.443-.413h.472c.354 0 .472 0 .531.354l5.905 15.086L226.03 7.973a.68.68 0 01.65-.355h.649a.531.531 0 01.207.561zm27.662 0l-3.868 21.965c0 .325-.177.414-.472.414h-.65c-.266 0-.384 0-.325-.414l2.628-14.761a80.697 80.697 0 011.151-5.344 48.089 48.089 0 01-3.188 4.724l-7.47 10.038a.671.671 0 01-.59.324h-.325c-.295 0-.354 0-.472-.324l-4.015-10.245c-.591-1.417-1.004-2.805-1.506-4.428-.177 1.889-.472 3.63-.738 5.343l-2.598 14.762c0 .325-.177.413-.473.413h-.649c-.325 0-.384 0-.325-.413l3.868-21.965c0-.325 0-.414.443-.414h.561c.383 0 .472 0 .561.354l5.904 15.116 11.249-15.175c.206-.295.324-.383.649-.383h.65v.413zm20.312 22.29h-.561c-.443 0-.591 0-.62-.384l-1.624-7.056h-10.569l-3.986 7.056c0 .295-.325.384-.797.384h-.502c-.384 0-.384-.177-.236-.414l12.547-22.083a.619.619 0 01.62-.354h.62a.386.386 0 01.473.295l4.93 22.083c.089.296.029.473-.295.473zM269.9 9.093a7.412 7.412 0 01-.472 1.358l-6.672 11.337h9.742L269.93 10.45a10.614 10.614 0 01-.03-1.358zm29.907 5.197a6.906 6.906 0 01-6.672 5.904 3.929 3.929 0 012.155 2.628l2.333 7.085c0 .207 0 .414-.266.414h-.65c-.501 0-.62 0-.738-.355l-2.125-6.347a3.842 3.842 0 00-4.34-2.953h-5.344l-1.683 9.566c0 .325-.206.413-.502.413h-.679c-.295 0-.354 0-.295-.413l3.868-21.965c0-.296 0-.414.442-.414h9.182a5.078 5.078 0 015.314 6.436zm-5.698-5.138h-8l-1.742 9.98h7.912a5.641 5.641 0 005.905-4.96A3.811 3.811 0 00295.91 9.3a3.956 3.956 0 00-1.801-.148zm24.948 21.316h-.62c-.472 0-.62 0-.708-.384l-2.421-7.44a3.779 3.779 0 00-4.311-2.952h-4.192l-1.801 10.422c0 .325-.206.442-.472.442h-.679c-.325 0-.384 0-.325-.442l3.868-21.936c0-.325 0-.413.442-.413h.68c.265 0 .383 0 .324.413l-1.801 10.008h4.754l9.329-10.185c.236-.295.384-.355.856-.355h.738c.325 0 .354.207 0 .414l-9.595 10.451a4.485 4.485 0 013.454 3.454l2.628 7.972c.207.324.148.531-.148.531zm24.563-16.179a6.911 6.911 0 01-6.672 5.905 4.22 4.22 0 012.184 2.627l2.303 7.086a.267.267 0 01.006.296.27.27 0 01-.272.117h-.649c-.502 0-.65 0-.738-.354l-2.126-6.348a3.863 3.863 0 00-4.369-2.952h-5.314l-1.713 9.566c0 .324-.177.413-.472.413h-.65c-.324 0-.413 0-.324-.413l3.838-21.966c0-.295.147-.413.472-.413h9.152a5.11 5.11 0 015.344 6.436zm-5.728-5.137h-7.971l-1.742 9.979h7.972a5.667 5.667 0 005.904-4.96 3.807 3.807 0 00-2.273-4.871 4.046 4.046 0 00-1.89-.148zm26.218 21.316h-.561c-.443 0-.591 0-.65-.384l-1.594-7.056h-10.599l-3.986 7.056c0 .295-.324.384-.797.384h-.502c-.383 0-.383-.177-.236-.414l12.666-22.083a.56.56 0 01.59-.354h.65a.381.381 0 01.411.153.36.36 0 01.061.142l4.93 22.083c0 .296-.059.473-.383.473zm-5.58-21.375c-.137.463-.304.917-.502 1.358l-6.554 11.337h9.742l-2.627-11.337a6.931 6.931 0 01-.059-1.358zm31.62-.915l-3.868 21.965c0 .325-.147.414-.472.414h-.65a.381.381 0 01-.413-.266l-8.444-16.326c-.767-1.506-1.299-3.219-1.83-4.134-.207 1.21-.354 3.248-.679 5.255l-2.657 14.762c0 .325-.177.443-.473.443h-.649c-.325 0-.384 0-.325-.443l3.868-21.936c0-.324 0-.413.443-.413h.561a.443.443 0 01.442.207l8.237 15.913c.916 1.683 1.565 3.483 2.126 4.546.236-1.387.384-3.543.768-5.757l2.539-14.23c0-.295 0-.384.472-.384h.561c.413-.03.502.06.443.384zm14.674-.857a6.644 6.644 0 017.204 4.901c0 .266 0 .414-.295.502l-.561.296c-.325 0-.414 0-.532-.207a5.519 5.519 0 00-5.904-3.986c-4.104 0-6.791 1.594-7.293 4.665-.767 3.66 2.628 4.458 6.259 4.842 3.632.384 7.676 1.476 6.791 6.406-.709 4.134-3.75 6.141-9.389 6.141a6.85 6.85 0 01-7.735-5.58c0-.325 0-.443.354-.56l.65-.237c.295 0 .384 0 .472.266a5.7 5.7 0 006.377 4.724c4.635 0 7.234-1.595 7.824-4.99.59-3.395-2.539-4.31-5.905-4.724-4.015-.472-8-1.594-7.174-6.554.532-3.867 3.75-5.905 8.857-5.905zm28.402.857l-.148.59c0 .266 0 .384-.443.384h-11.809l-1.624 9.123h10.599c.325 0 .384 0 .325.383v.59c0 .296 0 .414-.473.414h-10.569l-1.653 9.418h12.399c.325 0 .414 0 .325.384v.56c0 .326-.177.444-.472.444h-13.492c-.325 0-.384 0-.325-.443l3.867-21.936c0-.325.001-.413.443-.413h13.079c-.088.088.03.177-.029.502zm23.173 0l-3.897 21.965c0 .325-.148.414-.473.414h-.62a.385.385 0 01-.413-.266l-8.444-16.326c-.767-1.506-1.328-3.218-1.83-4.134-.236 1.21-.414 3.248-.709 5.255l-2.657 14.762c0 .325-.177.443-.502.443h-.62c-.295 0-.384 0-.295-.443l3.956-21.818c0-.324 0-.413.473-.413h.531a.44.44 0 01.443.207l8.089 15.795c.886 1.683 1.565 3.483 2.096 4.576.207-1.417.355-3.543.738-5.757l2.569-14.408c0-.295.148-.383.472-.383h.65c.384.118.502.206.443.531zM119.332 55.504l-.856 4.783c-.975 5.52-4.931 8.473-11.249 8.473h-7.853c-1.033 0-1.299-.355-1.092-1.329l3.513-19.957a1.36 1.36 0 011.329-1.359h8.03c6.318-.03 9.152 3.78 8.178 9.389zm-9.359-3.838h-2.598l-2.008 11.514h2.628a3.867 3.867 0 004.192-3.336l.827-4.606c.472-2.362-.472-3.572-3.041-3.572zm31.74-4.252l-.502 2.953c-.207 1.063-.62 1.387-1.594 1.387h-8.473l-.473 2.953h6.761c1.004 0 1.27.325 1.122 1.328l-.502 2.953c-.207 1.033-.59 1.387-1.594 1.387h-6.82l-.532 2.953h8.857c.975 0 1.299.324 1.093 1.328l-.532 2.952c0 .975-.561 1.329-1.594 1.329h-13.787c-1.004 0-1.299-.354-1.093-1.329l3.514-19.957c.177-.975.561-1.329 1.594-1.329h13.374c1.181-.236 1.181.118 1.181 1.092zm24.741-.029l-10.599 20.283a1.742 1.742 0 01-1.859 1.092h-3.986c-.915 0-1.299-.236-1.476-1.034l-3.514-20.341c-.177-.856.178-1.3 1.152-1.3h3.572c1.565 0 1.978.355 2.126 1.33l1.092 10.953a23.831 23.831 0 010 4.103h.295a24.73 24.73 0 011.329-4.103l4.989-10.954c.443-.974.916-1.328 2.48-1.328h3.72c1.034 0 1.152.443.679 1.299zm12.783-1.772c6.288 0 9.211 3.809 8.266 9.33L186.47 60.7c-.974 5.52-4.931 8.561-11.249 8.561-6.318 0-9.211-3.72-8.296-9.24l1.004-5.905c1.004-5.373 4.99-8.503 11.308-8.503zm-.857 5.58a3.631 3.631 0 00-3.985 2.953l-1.122 6.318c-.354 2.007.738 2.952 2.952 2.952a3.632 3.632 0 003.986-2.952l1.122-6.319c.324-1.889-.827-2.952-2.953-2.952zm32.415 3.337a8.652 8.652 0 01-9.477 7.468h-3.897l-.975 5.462c-.177.975-.561 1.329-1.594 1.329h-3.602c-1.033 0-1.328-.354-1.122-1.329l3.514-19.957c.206-.975.59-1.329 1.594-1.329h8.857c4.93-.088 7.558 3.307 6.702 8.355zm-6.466-.473a1.796 1.796 0 00-.509-1.949 1.8 1.8 0 00-.613-.354 2.183 2.183 0 00-.856 0h-3.13l-.826 4.724h3.129a2.747 2.747 0 002.805-2.421zm21.049-8.444c4.724 0 6.909 1.742 7.972 4.724.324.945 0 1.24-.945 1.653l-3.159 1.152c-.945.354-1.27.236-1.594-.68a2.956 2.956 0 00-2.953-1.682c-2.184 0-3.129.56-3.306 1.683-.177 1.122 1.535 1.653 3.867 1.978 3.573.502 8.119 2.184 7.086 8-.856 4.665-4.871 6.702-10.776 6.702-4.753 0-8.149-1.712-8.857-4.96 0-.944.207-1.417 1.181-1.742l3.218-1.121c1.004-.296 1.446-.207 1.742.708a3.274 3.274 0 003.277 1.683c2.185 0 3.513-.413 3.779-1.8.265-1.389-1.388-1.595-3.425-1.89-3.631-.502-8.591-1.683-7.528-7.972.738-4.044 4.31-6.436 10.421-6.436zm36.493 23.147h-3.336c-1.624 0-1.978-.354-2.125-1.329l-.237-2.302h-6.938l-1.121 2.302c-.473.975-.945 1.329-2.569 1.329h-3.454c-.974 0-1.063-.443-.591-1.3l10.865-20.223a1.685 1.685 0 011.83-1.122h3.632c.915 0 1.328.207 1.476 1.063l3.838 20.312c.059.827-.384 1.27-1.27 1.27zm-6.79-16.858h-.266a21.614 21.614 0 01-1.446 4.429l-1.801 3.75h3.985l-.501-3.72a18.728 18.728 0 01.029-4.459zm35.281.443a5.9 5.9 0 01-2.953 4.487 4.904 4.904 0 011.919 5.876c-.708 4.103-4.31 5.904-8.857 5.904h-9.417c-1.034 0-1.299-.354-1.122-1.358l3.513-19.958c.207-1.004.59-1.328 1.624-1.328h9.329c4.429.088 6.643 2.598 5.964 6.377zm-9.123 7.528h-3.72l-.679 3.72h3.72A1.948 1.948 0 00282.863 62a.846.846 0 000-.266c.354-1.299-.266-1.86-1.624-1.86zm.886-8.65h-2.953l-.62 3.513h2.953a2.008 2.008 0 002.273-1.683c.207-1.24-.354-1.8-1.683-1.8l.03-.03z" fill="#fff"/><defs><radialGradient id="paint0_radial_107_32" cx="0" cy="0" r="1" gradientUnits="userSpaceOnUse" gradientTransform="translate(38.233 46.115) scale(34.5718)"><stop stop-color="#FCEA0D"/><stop offset=".07" stop-color="#FAD90D"/><stop offset=".53" stop-color="#ED6910"/><stop offset=".85" stop-color="#E52212"/><stop offset="1" stop-color="#E20613"/></radialGradient><radialGradient id="paint1_radial_107_32" cx="0" cy="0" r="1" gradientUnits="userSpaceOnUse" gradientTransform="translate(42.16 38.026) scale(33.2137)"><stop stop-color="#FCEA0D"/><stop offset=".07" stop-color="#FAD90D"/><stop offset=".53" stop-color="#ED6910"/><stop offset=".85" stop-color="#E52212"/><stop offset="1" stop-color="#E20613"/></radialGradient><radialGradient id="paint2_radial_107_32" cx="0" cy="0" r="1" gradientUnits="userSpaceOnUse" gradientTransform="translate(42.247 47.916) scale(28.7852)"><stop stop-color="#FCEA0D"/><stop offset=".07" stop-color="#FAD90D"/><stop offset=".53" stop-color="#ED6910"/><stop offset=".85" stop-color="#E52212"/><stop offset="1" stop-color="#E20613"/></radialGradient><radialGradient id="paint3_radial_107_32" cx="0" cy="0" r="1" gradientUnits="userSpaceOnUse" gradientTransform="translate(45.082 39.975) scale(28.0471)"><stop stop-color="#FCEA0D"/><stop offset=".07" stop-color="#FAD90D"/><stop offset=".53" stop-color="#ED6910"/><stop offset=".85" stop-color="#E52212"/><stop offset="1" stop-color="#E20613"/></radialGradient></defs></svg>