<svg width="1073" height="123" viewBox="0 0 1073 123" fill="none" xmlns="http://www.w3.org/2000/svg">
<rect x="-420" width="1493" height="123" rx="61.5" fill="#EB5C28"/>
<mask id="mask0_170_3" style="mask-type:alpha" maskUnits="userSpaceOnUse" x="-420" y="0" width="1493" height="123">
<rect x="-420" width="1493" height="123" rx="61.5" fill="#EB5C28"/>
</mask>
<g mask="url(#mask0_170_3)">
<path d="M6.17507 145C1.67315 144.025 -2.76703 142.786 -7.12219 141.288C-14.5363 138.275 -21.2887 133.845 -27 128.249L-25.2754 126.664C-24.0047 125.352 -22.9155 124.174 -21.1456 122.635C-13.7027 127.162 -7.53064 130.603 -1.90313 133.682C-0.269828 136.632 1.5968 139.448 3.67899 142.103C4.4484 143.12 5.28212 144.088 6.17507 145V145ZM0.366023 130.377C-9.7998 124.491 -12.7951 122.68 -18.9672 118.832C-21.5899 111.551 -23.1192 103.923 -23.5055 96.1957C-15.745 92.755 -9.89056 90.5366 -0.0424217 86.8695L12.4833 96.1957L22.2861 103.439L19.6992 112.494C18.2924 117.474 17.4755 120.281 16.6132 124.084C11.0931 125.903 5.67023 128.003 0.366023 130.377V130.377ZM27.5959 99.1838L26.189 98.0519C23.2845 95.6977 17.8385 91.3063 6.3566 82.5686C8.35346 72.2463 10.4411 63.1465 12.6649 53.5939C34.9934 45.8069 35.3564 45.6711 43.1169 42.8642C50.5396 48.8275 57.6442 55.1744 64.4016 61.8788C62.1536 71.4508 59.2111 80.847 55.5973 89.9933C48.7898 92.3928 42.9354 94.2943 36.6725 96.2863L27.5959 99.1838ZM70.4376 57.2157C63.8349 50.511 56.8493 44.1924 49.516 38.2916C50.9802 29.3996 51.769 20.41 51.8759 11.3995C58.1176 8.98606 64.1834 6.14208 70.0291 2.88815C76.822 7.70167 83.2951 12.9492 89.4077 18.5979C91.3974 27.7829 92.0394 37.2075 91.3138 46.5766C84.5351 50.5496 77.5177 54.1027 70.3014 57.2157H70.4376ZM91.7223 14.0706C85.7317 8.54924 79.3626 3.45123 72.6613 -1.18642C70.0695 -8.45708 66.0936 -15.1596 60.9525 -20.9254C60.9525 -22.0573 61.2702 -23.1438 61.4063 -24.1851V-25C67.3591 -22.2706 73.0289 -18.9649 78.3342 -15.1305C85.3584 -9.00317 91.3095 -1.75064 95.9429 6.3289C96.2152 7.55127 95.6252 9.996 91.7223 14.0706Z" fill="#F5F5F5"/>
<path d="M153.165 78L153.12 57.12L142.77 74.4H140.16L129.81 57.39V78H124.23V46.5H129.045L141.555 67.38L153.84 46.5H158.655L158.7 78H153.165ZM169.459 46.5H175.309V78H169.459V46.5ZM186.079 46.5H199.849C203.209 46.5 206.194 47.16 208.804 48.48C211.414 49.77 213.439 51.615 214.879 54.015C216.319 56.385 217.039 59.13 217.039 62.25C217.039 65.37 216.319 68.13 214.879 70.53C213.439 72.9 211.414 74.745 208.804 76.065C206.194 77.355 203.209 78 199.849 78H186.079V46.5ZM199.579 73.05C201.889 73.05 203.914 72.615 205.654 71.745C207.424 70.845 208.774 69.585 209.704 67.965C210.664 66.315 211.144 64.41 211.144 62.25C211.144 60.09 210.664 58.2 209.704 56.58C208.774 54.93 207.424 53.67 205.654 52.8C203.914 51.9 201.889 51.45 199.579 51.45H191.929V73.05H199.579ZM235.271 78.45C232.841 78.45 230.486 78.105 228.206 77.415C225.956 76.725 224.171 75.81 222.851 74.67L224.876 70.125C226.166 71.145 227.741 71.985 229.601 72.645C231.491 73.275 233.381 73.59 235.271 73.59C237.611 73.59 239.351 73.215 240.491 72.465C241.661 71.715 242.246 70.725 242.246 69.495C242.246 68.595 241.916 67.86 241.256 67.29C240.626 66.69 239.816 66.225 238.826 65.895C237.836 65.565 236.486 65.19 234.776 64.77C232.376 64.2 230.426 63.63 228.926 63.06C227.456 62.49 226.181 61.605 225.101 60.405C224.051 59.175 223.526 57.525 223.526 55.455C223.526 53.715 223.991 52.14 224.921 50.73C225.881 49.29 227.306 48.15 229.196 47.31C231.116 46.47 233.456 46.05 236.216 46.05C238.136 46.05 240.026 46.29 241.886 46.77C243.746 47.25 245.351 47.94 246.701 48.84L244.856 53.385C243.476 52.575 242.036 51.96 240.536 51.54C239.036 51.12 237.581 50.91 236.171 50.91C233.861 50.91 232.136 51.3 230.996 52.08C229.886 52.86 229.331 53.895 229.331 55.185C229.331 56.085 229.646 56.82 230.276 57.39C230.936 57.96 231.761 58.41 232.751 58.74C233.741 59.07 235.091 59.445 236.801 59.865C239.141 60.405 241.061 60.975 242.561 61.575C244.061 62.145 245.336 63.03 246.386 64.23C247.466 65.43 248.006 67.05 248.006 69.09C248.006 70.83 247.526 72.405 246.566 73.815C245.636 75.225 244.211 76.35 242.291 77.19C240.371 78.03 238.031 78.45 235.271 78.45ZM270.772 78.45C267.562 78.45 264.667 77.76 262.087 76.38C259.507 74.97 257.482 73.035 256.012 70.575C254.542 68.085 253.807 65.31 253.807 62.25C253.807 59.19 254.542 56.43 256.012 53.97C257.482 51.48 259.507 49.545 262.087 48.165C264.667 46.755 267.562 46.05 270.772 46.05C273.982 46.05 276.877 46.755 279.457 48.165C282.037 49.545 284.062 51.465 285.532 53.925C287.002 56.385 287.737 59.16 287.737 62.25C287.737 65.34 287.002 68.115 285.532 70.575C284.062 73.035 282.037 74.97 279.457 76.38C276.877 77.76 273.982 78.45 270.772 78.45ZM270.772 73.32C272.872 73.32 274.762 72.855 276.442 71.925C278.122 70.965 279.442 69.645 280.402 67.965C281.362 66.255 281.842 64.35 281.842 62.25C281.842 60.15 281.362 58.26 280.402 56.58C279.442 54.87 278.122 53.55 276.442 52.62C274.762 51.66 272.872 51.18 270.772 51.18C268.672 51.18 266.782 51.66 265.102 52.62C263.422 53.55 262.102 54.87 261.142 56.58C260.182 58.26 259.702 60.15 259.702 62.25C259.702 64.35 260.182 66.255 261.142 67.965C262.102 69.645 263.422 70.965 265.102 71.925C266.782 72.855 268.672 73.32 270.772 73.32ZM325.123 78L325.078 57.12L314.728 74.4H312.118L301.768 57.39V78H296.188V46.5H301.003L313.513 67.38L325.798 46.5H330.613L330.658 78H325.123ZM370.352 78L370.307 57.12L359.957 74.4H357.347L346.997 57.39V78H341.417V46.5H346.232L358.742 67.38L371.027 46.5H375.842L375.887 78H370.352ZM407.075 70.71H391.325L388.22 78H382.19L396.365 46.5H402.125L416.345 78H410.225L407.075 70.71ZM405.14 66.12L399.2 52.35L393.305 66.12H405.14ZM443.211 78L436.776 68.775C436.506 68.805 436.101 68.82 435.561 68.82H428.451V78H422.601V46.5H435.561C438.291 46.5 440.661 46.95 442.671 47.85C444.711 48.75 446.271 50.04 447.351 51.72C448.431 53.4 448.971 55.395 448.971 57.705C448.971 60.075 448.386 62.115 447.216 63.825C446.076 65.535 444.426 66.81 442.266 67.65L449.511 78H443.211ZM443.076 57.705C443.076 55.695 442.416 54.15 441.096 53.07C439.776 51.99 437.841 51.45 435.291 51.45H428.451V64.005H435.291C437.841 64.005 439.776 63.465 441.096 62.385C442.416 61.275 443.076 59.715 443.076 57.705ZM468.611 64.815L463.616 69.945V78H457.766V46.5H463.616V62.655L479.186 46.5H485.756L472.526 60.585L486.566 78H479.726L468.611 64.815ZM513.409 78L506.974 68.775C506.704 68.805 506.299 68.82 505.759 68.82H498.649V78H492.799V46.5H505.759C508.489 46.5 510.859 46.95 512.869 47.85C514.909 48.75 516.469 50.04 517.549 51.72C518.629 53.4 519.169 55.395 519.169 57.705C519.169 60.075 518.584 62.115 517.414 63.825C516.274 65.535 514.624 66.81 512.464 67.65L519.709 78H513.409ZM513.274 57.705C513.274 55.695 512.614 54.15 511.294 53.07C509.974 51.99 508.039 51.45 505.489 51.45H498.649V64.005H505.489C508.039 64.005 509.974 63.465 511.294 62.385C512.614 61.275 513.274 59.715 513.274 57.705ZM548.394 70.71H532.644L529.539 78H523.509L537.684 46.5H543.444L557.664 78H551.544L548.394 70.71ZM546.459 66.12L540.519 52.35L534.624 66.12H546.459ZM591.91 46.5V78H587.095L569.725 56.67V78H563.92V46.5H568.735L586.105 67.83V46.5H591.91ZM612.366 78.45C609.936 78.45 607.581 78.105 605.301 77.415C603.051 76.725 601.266 75.81 599.946 74.67L601.971 70.125C603.261 71.145 604.836 71.985 606.696 72.645C608.586 73.275 610.476 73.59 612.366 73.59C614.706 73.59 616.446 73.215 617.586 72.465C618.756 71.715 619.341 70.725 619.341 69.495C619.341 68.595 619.011 67.86 618.351 67.29C617.721 66.69 616.911 66.225 615.921 65.895C614.931 65.565 613.581 65.19 611.871 64.77C609.471 64.2 607.521 63.63 606.021 63.06C604.551 62.49 603.276 61.605 602.196 60.405C601.146 59.175 600.621 57.525 600.621 55.455C600.621 53.715 601.086 52.14 602.016 50.73C602.976 49.29 604.401 48.15 606.291 47.31C608.211 46.47 610.551 46.05 613.311 46.05C615.231 46.05 617.121 46.29 618.981 46.77C620.841 47.25 622.446 47.94 623.796 48.84L621.951 53.385C620.571 52.575 619.131 51.96 617.631 51.54C616.131 51.12 614.676 50.91 613.266 50.91C610.956 50.91 609.231 51.3 608.091 52.08C606.981 52.86 606.426 53.895 606.426 55.185C606.426 56.085 606.741 56.82 607.371 57.39C608.031 57.96 608.856 58.41 609.846 58.74C610.836 59.07 612.186 59.445 613.896 59.865C616.236 60.405 618.156 60.975 619.656 61.575C621.156 62.145 622.431 63.03 623.481 64.23C624.561 65.43 625.101 67.05 625.101 69.09C625.101 70.83 624.621 72.405 623.661 73.815C622.731 75.225 621.306 76.35 619.386 77.19C617.466 78.03 615.126 78.45 612.366 78.45ZM656.777 73.095V78H633.152V46.5H656.147V51.405H639.002V59.595H654.212V64.41H639.002V73.095H656.777ZM693.538 46.5V78H688.723L671.353 56.67V78H665.548V46.5H670.363L687.733 67.83V46.5H693.538ZM718.916 46.5H732.686C736.046 46.5 739.031 47.16 741.641 48.48C744.251 49.77 746.276 51.615 747.716 54.015C749.156 56.385 749.876 59.13 749.876 62.25C749.876 65.37 749.156 68.13 747.716 70.53C746.276 72.9 744.251 74.745 741.641 76.065C739.031 77.355 736.046 78 732.686 78H718.916V46.5ZM732.416 73.05C734.726 73.05 736.751 72.615 738.491 71.745C740.261 70.845 741.611 69.585 742.541 67.965C743.501 66.315 743.981 64.41 743.981 62.25C743.981 60.09 743.501 58.2 742.541 56.58C741.611 54.93 740.261 53.67 738.491 52.8C736.751 51.9 734.726 51.45 732.416 51.45H724.766V73.05H732.416ZM781.968 73.095V78H758.343V46.5H781.338V51.405H764.193V59.595H779.403V64.41H764.193V73.095H781.968ZM819.1 46.5L805.375 78H799.615L785.845 46.5H792.19L802.675 70.8L813.25 46.5H819.1ZM839.038 78.45C835.828 78.45 832.933 77.76 830.353 76.38C827.773 74.97 825.748 73.035 824.278 70.575C822.808 68.085 822.073 65.31 822.073 62.25C822.073 59.19 822.808 56.43 824.278 53.97C825.748 51.48 827.773 49.545 830.353 48.165C832.933 46.755 835.828 46.05 839.038 46.05C842.248 46.05 845.143 46.755 847.723 48.165C850.303 49.545 852.328 51.465 853.798 53.925C855.268 56.385 856.003 59.16 856.003 62.25C856.003 65.34 855.268 68.115 853.798 70.575C852.328 73.035 850.303 74.97 847.723 76.38C845.143 77.76 842.248 78.45 839.038 78.45ZM839.038 73.32C841.138 73.32 843.028 72.855 844.708 71.925C846.388 70.965 847.708 69.645 848.668 67.965C849.628 66.255 850.108 64.35 850.108 62.25C850.108 60.15 849.628 58.26 848.668 56.58C847.708 54.87 846.388 53.55 844.708 52.62C843.028 51.66 841.138 51.18 839.038 51.18C836.938 51.18 835.048 51.66 833.368 52.62C831.688 53.55 830.368 54.87 829.408 56.58C828.448 58.26 827.968 60.15 827.968 62.25C827.968 64.35 828.448 66.255 829.408 67.965C830.368 69.645 831.688 70.965 833.368 71.925C835.048 72.855 836.938 73.32 839.038 73.32ZM877.414 46.5C880.144 46.5 882.514 46.95 884.524 47.85C886.564 48.75 888.124 50.04 889.204 51.72C890.284 53.4 890.824 55.395 890.824 57.705C890.824 59.985 890.284 61.98 889.204 63.69C888.124 65.37 886.564 66.66 884.524 67.56C882.514 68.46 880.144 68.91 877.414 68.91H870.304V78H864.454V46.5H877.414ZM877.144 63.96C879.694 63.96 881.629 63.42 882.949 62.34C884.269 61.26 884.929 59.715 884.929 57.705C884.929 55.695 884.269 54.15 882.949 53.07C881.629 51.99 879.694 51.45 877.144 51.45H870.304V63.96H877.144ZM909.12 78.45C906.69 78.45 904.335 78.105 902.055 77.415C899.805 76.725 898.02 75.81 896.7 74.67L898.725 70.125C900.015 71.145 901.59 71.985 903.45 72.645C905.34 73.275 907.23 73.59 909.12 73.59C911.46 73.59 913.2 73.215 914.34 72.465C915.51 71.715 916.095 70.725 916.095 69.495C916.095 68.595 915.765 67.86 915.105 67.29C914.475 66.69 913.665 66.225 912.675 65.895C911.685 65.565 910.335 65.19 908.625 64.77C906.225 64.2 904.275 63.63 902.775 63.06C901.305 62.49 900.03 61.605 898.95 60.405C897.9 59.175 897.375 57.525 897.375 55.455C897.375 53.715 897.84 52.14 898.77 50.73C899.73 49.29 901.155 48.15 903.045 47.31C904.965 46.47 907.305 46.05 910.065 46.05C911.985 46.05 913.875 46.29 915.735 46.77C917.595 47.25 919.2 47.94 920.55 48.84L918.705 53.385C917.325 52.575 915.885 51.96 914.385 51.54C912.885 51.12 911.43 50.91 910.02 50.91C907.71 50.91 905.985 51.3 904.845 52.08C903.735 52.86 903.18 53.895 903.18 55.185C903.18 56.085 903.495 56.82 904.125 57.39C904.785 57.96 905.61 58.41 906.6 58.74C907.59 59.07 908.94 59.445 910.65 59.865C912.99 60.405 914.91 60.975 916.41 61.575C917.91 62.145 919.185 63.03 920.235 64.23C921.315 65.43 921.855 67.05 921.855 69.09C921.855 70.83 921.375 72.405 920.415 73.815C919.485 75.225 918.06 76.35 916.14 77.19C914.22 78.03 911.88 78.45 909.12 78.45ZM965.022 70.71H949.272L946.167 78H940.137L954.312 46.5H960.072L974.292 78H968.172L965.022 70.71ZM963.087 66.12L957.147 52.35L951.252 66.12H963.087ZM1002.87 61.62C1004.61 62.19 1005.99 63.15 1007.01 64.5C1008.03 65.82 1008.54 67.47 1008.54 69.45C1008.54 72.18 1007.49 74.295 1005.39 75.795C1003.29 77.265 1000.23 78 996.208 78H980.548V46.5H995.308C999.028 46.5 1001.89 47.235 1003.9 48.705C1005.91 50.145 1006.92 52.14 1006.92 54.69C1006.92 56.25 1006.56 57.63 1005.84 58.83C1005.12 60.03 1004.13 60.96 1002.87 61.62ZM986.398 51.09V59.775H994.678C996.718 59.775 998.278 59.415 999.358 58.695C1000.47 57.945 1001.02 56.865 1001.02 55.455C1001.02 54.015 1000.47 52.935 999.358 52.215C998.278 51.465 996.718 51.09 994.678 51.09H986.398ZM995.848 73.41C1000.38 73.41 1002.64 71.895 1002.64 68.865C1002.64 65.835 1000.38 64.32 995.848 64.32H986.398V73.41H995.848Z" fill="white"/>
</g>
<mask id="mask1_170_3" style="mask-type:alpha" maskUnits="userSpaceOnUse" x="-420" y="0" width="1493" height="123">
<rect x="-420" width="1493" height="123" rx="61.5" fill="white"/>
</mask>
<g mask="url(#mask1_170_3)">
<path d="M6.17507 145C1.67315 144.025 -2.76703 142.786 -7.12219 141.288C-14.5363 138.275 -21.2887 133.845 -27 128.249L-25.2754 126.664C-24.0047 125.352 -22.9155 124.174 -21.1456 122.635C-13.7027 127.162 -7.53064 130.603 -1.90313 133.682C-0.269828 136.632 1.5968 139.448 3.67899 142.103C4.4484 143.12 5.28212 144.088 6.17507 145V145ZM0.366023 130.377C-9.7998 124.491 -12.7951 122.68 -18.9672 118.832C-21.5899 111.551 -23.1192 103.923 -23.5055 96.1957C-15.745 92.755 -9.89056 90.5366 -0.0424217 86.8695L12.4833 96.1957L22.2861 103.439L19.6992 112.494C18.2924 117.474 17.4755 120.281 16.6132 124.084C11.0931 125.903 5.67023 128.003 0.366023 130.377V130.377ZM27.5959 99.1838L26.189 98.0519C23.2845 95.6977 17.8385 91.3063 6.3566 82.5686C8.35346 72.2463 10.4411 63.1465 12.6649 53.5939C34.9934 45.8069 35.3564 45.6711 43.1169 42.8642C50.5396 48.8275 57.6442 55.1744 64.4016 61.8788C62.1536 71.4508 59.2111 80.847 55.5973 89.9933C48.7898 92.3928 42.9354 94.2943 36.6725 96.2863L27.5959 99.1838ZM70.4376 57.2157C63.8349 50.511 56.8493 44.1924 49.516 38.2916C50.9802 29.3996 51.769 20.41 51.8759 11.3995C58.1176 8.98606 64.1834 6.14208 70.0291 2.88815C76.822 7.70167 83.2951 12.9492 89.4077 18.5979C91.3974 27.7829 92.0394 37.2075 91.3138 46.5766C84.5351 50.5496 77.5177 54.1027 70.3014 57.2157H70.4376ZM91.7223 14.0706C85.7317 8.54924 79.3626 3.45123 72.6613 -1.18642C70.0695 -8.45708 66.0936 -15.1596 60.9525 -20.9254C60.9525 -22.0573 61.2702 -23.1438 61.4063 -24.1851V-25C67.3591 -22.2706 73.0289 -18.9649 78.3342 -15.1305C85.3584 -9.00317 91.3095 -1.75064 95.9429 6.3289C96.2152 7.55127 95.6252 9.996 91.7223 14.0706Z" fill="#F5F5F5"/>
</g>
</svg>
