<svg width="42" height="40" viewBox="0 0 42 40" fill="none" xmlns="http://www.w3.org/2000/svg">
<path d="M14.5945 24.9831C14.935 23.1195 15.2269 21.5023 16.0539 18.0986C14.254 16.6662 12.535 15.4033 10.7026 13.6475C8.58494 14.3638 6.50664 15.1811 4.47564 16.0963C3.87723 18.3894 3.56696 20.7417 3.55133 23.1041C5.1005 24.5992 6.75865 25.9888 8.51345 27.2626C10.4107 26.4463 11.5621 26.0304 14.5134 24.9831H14.5945ZM9.11345 33.4232C8.33566 31.6724 7.84878 29.8175 7.67022 27.9248C5.9521 26.6773 4.32663 25.3188 2.80539 23.8588C1.7133 24.4445 0.758667 25.2359 0 26.1844C0.592974 28.2565 1.55853 30.2157 2.85403 31.9755C4.2427 33.1312 5.74097 34.1623 7.32968 35.0558C7.87141 34.4618 8.46842 33.9154 9.11345 33.4232ZM41.9997 18.6838C42.0145 15.9143 41.4638 13.1683 40.3781 10.5979C39.9398 9.73404 39.3955 8.92238 38.7565 8.17987C38.7156 8.60149 38.5836 9.01057 38.3687 9.38156C38.1539 9.75255 37.8608 10.0775 37.5078 10.3361C38.0654 12.496 38.2678 14.7248 38.1078 16.9434C39.209 18.3296 40.0334 19.8956 40.5403 21.5639C41.3088 20.9596 41.8214 20.1117 41.9835 19.1767V18.73L41.9997 18.6838ZM7.71887 35.6719C6.16666 34.8457 4.70062 33.8814 3.34052 32.7918C3.46425 33.2265 3.71102 33.6206 4.05403 33.9315C4.82145 34.6164 5.63389 35.2542 6.48644 35.8413C7.41731 36.4862 8.39851 37.0629 9.42156 37.5663C10.3621 37.9821 11.6107 38.5058 12.6648 38.8446C12.6648 38.8446 9.87561 37.3045 9.27561 36.9194C8.67562 36.5344 7.73508 35.7027 7.73508 35.7027L7.71887 35.6719ZM37.1673 28.6641C38.399 26.6622 39.3271 24.5053 39.924 22.257C39.3137 20.6408 38.426 19.1316 37.297 17.7905C35.5905 18.7524 33.8191 19.6065 31.9944 20.3472C31.4242 22.6186 30.6651 24.8435 29.7241 27.0007C30.8219 28.1331 31.7347 29.4155 32.4322 30.8049C34.0726 30.2351 35.6616 29.5398 37.1835 28.7257L37.1673 28.6641ZM27.3241 36.0107C28.8137 34.6016 30.1502 33.0536 31.3133 31.3902C30.5688 30.0464 29.624 28.8118 28.5079 27.7246C26.3836 28.4331 25.2647 28.9567 21.8431 30.0041C20.7404 33.0844 20.562 33.7621 20.2215 34.9018C21.2291 35.579 22.1207 36.3998 22.8647 37.3353C26.9674 36.1647 27.2431 36.0415 27.3079 36.0415L27.3241 36.0107ZM37.297 31.6828C39.9911 28.3783 41.5987 24.3923 41.9186 20.224C41.7313 21.0838 41.246 21.8593 40.5403 22.4264C39.9522 24.6726 39.0236 26.8257 37.7835 28.8181C37.7626 30.0719 37.3691 31.2945 36.6484 32.3451C36.898 32.1361 37.1362 31.915 37.3619 31.6828H37.297ZM20.0755 39.9073C20.8354 39.2273 21.5051 38.4618 22.0701 37.6279C21.2712 36.7433 20.3492 35.9661 19.3296 35.3176C18.0051 35.7136 16.7057 36.1816 15.4377 36.7192C15.8613 37.9266 16.6373 38.9949 17.6756 39.7995C18.4515 39.9681 19.2512 40.0149 20.0431 39.9381L20.0755 39.9073ZM30.4376 37.0888C32.4717 35.9623 34.3187 34.5557 35.9187 32.915C36.6025 31.8905 36.9419 30.6925 36.8916 29.4804C35.3829 30.2445 33.8228 30.9134 32.2214 31.4826C30.9323 33.1657 29.4592 34.7145 27.8268 36.1031C27.5661 36.9522 27.1784 37.7614 26.6755 38.5058C27.9527 38.2023 29.1882 37.7577 30.3565 37.1812L30.4376 37.0888ZM20.4809 39.9998C22.3803 39.8806 24.2368 39.4097 25.9458 38.6136C26.3317 38.0232 26.6317 37.386 26.8377 36.7192C25.216 37.1966 25.216 37.1966 22.735 37.8743C22.735 37.8743 21.4215 39.1219 20.5296 39.8919L20.4809 39.9998Z" fill="url(#paint0_radial_107_311)"/>
<path d="M38.2335 7.40797C37.1385 5.5321 35.7249 3.84084 34.0497 2.40242C32.6572 1.45349 31.1623 0.64806 29.5903 -0.000244141C29.5903 0.369396 29.4768 0.816045 29.4119 1.26269C30.68 2.61355 31.6652 4.18174 32.3146 5.8832C33.9924 6.99166 35.5855 8.21144 37.0821 9.5334C38.0064 8.5939 38.4118 7.88542 38.2821 7.43877L38.2335 7.40797ZM37.1794 16.9416C37.3581 14.7182 37.1942 12.4819 36.6929 10.3035C35.1626 8.94307 33.5373 7.68239 31.8281 6.53007C30.3671 7.32661 28.85 8.02648 27.2876 8.6247C27.2393 10.7619 27.028 12.8929 26.6552 15.001C28.4706 16.3972 30.1979 17.8938 31.8281 19.4829C33.6584 18.737 35.4352 17.8778 37.147 16.9108L37.1794 16.9416ZM28.4389 26.9373C29.3443 24.7631 30.0814 22.5291 30.6443 20.253C28.9528 18.6643 27.1776 17.1582 25.3254 15.7403C23.3471 16.418 23.3471 16.418 17.7525 18.2662C17.2012 20.5456 16.666 22.7018 16.1309 25.1507C19.6174 27.692 20.8011 28.6469 21.4174 29.1089C23.8822 28.3543 25.8768 27.769 28.3741 26.9373H28.4389ZM19.0174 34.8076C19.3255 33.4522 19.5849 32.7283 20.4282 29.8174L14.866 25.813C12.3039 26.7063 10.9255 27.1991 8.94716 28.0462C9.04355 29.9029 9.43162 31.7354 10.0985 33.483C11.7201 34.3917 12.3688 34.823 14.9633 36.2245C16.2931 35.6701 17.6714 35.1772 19.066 34.6844L19.0174 34.8076ZM14.5255 36.5788C13.1309 35.8395 11.5742 35.0386 9.66067 33.9451C9.08187 34.4208 8.53992 34.9355 8.03906 35.4852C9.43359 36.8744 11.1107 37.98 12.9688 38.735C14.2883 39.1504 15.6378 39.4746 17.0066 39.7053C16.524 39.4086 16.1057 39.027 15.7741 38.581C15.3326 37.961 14.937 37.3126 14.5904 36.6404L14.5255 36.5788Z" fill="url(#paint1_radial_107_311)"/>
<path d="M19.2481 39.7687C18.7331 39.7637 18.2208 39.6964 17.7237 39.5685C16.7832 38.831 16.0667 37.8687 15.6481 36.7808C16.8302 36.2975 18.0371 35.8709 19.2643 35.5024C20.1909 36.0983 21.04 36.7963 21.794 37.5817C21.2598 38.3373 20.6458 39.0391 19.9616 39.6763H19.2481V39.7687ZM21.0805 39.6455C21.8426 38.9832 22.7021 38.1823 22.8967 38.0129L24.8588 37.4893L26.6264 36.9656C26.4421 37.4951 26.2144 38.0101 25.9453 38.5058C24.4111 39.1661 22.762 39.5524 21.0805 39.6455ZM27.1129 38.1053C27.4847 37.5297 27.784 36.9145 28.0048 36.2725C29.6106 34.8771 31.0614 33.3288 32.3345 31.652C33.8283 31.1121 35.2899 30.4951 36.7128 29.8038C36.6933 30.8939 36.3627 31.9586 35.7561 32.8841C34.1556 34.4861 32.3206 35.8607 30.3074 36.9656C29.3027 37.4553 28.2416 37.8326 27.1453 38.0899L27.1129 38.1053ZM9.85893 37.5971L9.38866 37.3968C8.41348 36.8886 7.47615 36.3174 6.58328 35.6873C5.76527 35.1409 4.99025 34.5386 4.26437 33.8853L4.00492 33.608C5.16675 34.4558 6.39155 35.2227 7.66976 35.9029C7.79948 36.0261 8.56164 36.7038 9.11299 37.135C9.34624 37.3104 9.59593 37.465 9.85893 37.5971ZM22.9129 37.0734C22.1876 36.2099 21.3482 35.4386 20.4156 34.7786L22.0372 30.158C24.1778 29.4958 25.394 29.0491 26.5615 28.6179L28.5723 27.9402C29.6015 28.9646 30.4748 30.1206 31.1669 31.3748C30.034 32.9913 28.7358 34.4977 27.2912 35.8721L23.0102 37.1042L22.9129 37.0734ZM7.29678 34.7786C5.77327 33.9357 4.33476 32.9612 2.99952 31.8676C1.74476 30.1351 0.807245 28.2136 0.226562 26.1844C0.928755 25.3219 1.79849 24.5952 2.78871 24.0436C4.26321 25.4547 5.83418 26.7718 7.49138 27.9864C7.65324 29.8072 8.12418 31.5912 8.88596 33.2692C8.44536 33.608 8.03826 33.9843 7.66976 34.3935L7.29678 34.7786ZM37.4587 31.2362C37.757 30.4816 37.9214 29.6853 37.9452 28.8797C39.1934 26.9093 40.1175 24.7695 40.6857 22.5342C41.0411 22.2253 41.3519 21.8732 41.6101 21.4869C41.1155 25.0175 39.6873 28.3716 37.4587 31.2362ZM32.5939 30.5123C31.9296 29.2284 31.084 28.0366 30.0804 26.9699C31.0041 24.872 31.7365 22.7027 32.2696 20.4858C34.0056 19.7806 35.6857 18.957 37.2966 18.0215C38.3446 19.3152 39.166 20.761 39.729 22.3032C39.1298 24.4948 38.2187 26.5985 37.0209 28.5563C35.5801 29.2984 34.0906 29.9518 32.5615 30.5123H32.5939ZM8.54543 27.0777C6.83033 25.8489 5.20499 24.511 3.68059 23.0733C3.70051 20.7841 3.99981 18.5048 4.57248 16.2811C6.68057 15.4032 8.10759 14.818 10.6373 13.8631C12.4373 15.511 14.0427 16.7894 15.7454 18.1447C14.9508 21.4561 14.594 23.1041 14.3346 24.8599C12.3635 25.4977 10.4308 26.2381 8.54543 27.0777ZM40.6533 21.1943C40.1316 19.6718 39.3599 18.2371 38.3668 16.9434C38.4986 14.7489 38.2855 12.5479 37.7344 10.4131C38.2759 9.94622 38.6549 9.33378 38.8209 8.65729C39.3374 9.31364 39.7676 10.0274 40.102 10.7827C41.1801 13.323 41.7308 16.0373 41.7236 18.7762V19.2228C41.5973 19.9826 41.2095 20.6813 40.6209 21.2097L40.6533 21.1943Z" fill="url(#paint2_radial_107_311)"/>
<path d="M16.362 39.383C15.2635 39.158 14.1805 38.87 13.1187 38.5205C11.2977 37.811 9.64381 36.7638 8.25391 35.4401L8.67552 35.0859C8.98363 34.7779 9.24309 34.516 9.66471 34.1618C11.4647 35.1937 12.9079 35.9946 14.3187 36.7031C14.7085 37.3802 15.1588 38.0243 15.6647 38.6283C15.8808 38.893 16.1137 39.145 16.362 39.383ZM14.9674 36.01C12.5025 34.6546 11.7242 34.2388 10.2971 33.3609C9.665 31.6858 9.29353 29.9321 9.19444 28.1551C11.0755 27.3696 12.4377 26.846 14.8701 26.0143L17.8376 28.1551L20.2052 29.8185L19.589 31.8977C19.2484 33.0529 19.0538 33.6997 18.843 34.5622C17.562 34.9781 16.216 35.4247 14.9674 36.01ZM21.4538 28.8328L21.1133 28.5864C20.416 28.0319 19.1025 27.0462 16.2484 25.0132C16.7349 22.6413 17.2376 20.5467 17.7728 18.3597C23.1727 16.5731 23.2538 16.5269 25.1349 15.8954C26.924 17.2658 28.6396 18.7205 30.2754 20.2541C29.7266 22.4564 29.0112 24.6182 28.1349 26.7228C26.5132 27.2772 25.0862 27.7085 23.5781 28.1705L21.4538 28.8328ZM31.7997 19.1913C30.2089 17.647 28.525 16.1916 26.7565 14.8327C27.1069 12.7954 27.2967 10.7361 27.324 8.672C28.8281 8.1142 30.2909 7.46071 31.7024 6.71598C33.3458 7.81878 34.9113 9.0227 36.3889 10.32C36.8719 12.4332 37.0249 14.6024 36.8429 16.7579C35.2034 17.6687 33.5086 18.4864 31.7673 19.2067L31.7997 19.1913ZM37.0213 9.24186C35.5798 7.98039 34.0462 6.81723 32.4321 5.76108C31.8049 4.08631 30.8411 2.54322 29.5943 1.21758C29.6151 0.963966 29.653 0.711884 29.7078 0.462896V0.278076C31.1475 0.904964 32.5166 1.66867 33.7943 2.55753C35.4943 3.9598 36.931 5.62639 38.0429 7.48607C38.1078 7.70169 37.978 8.33316 37.0213 9.24186Z" fill="url(#paint3_radial_107_311)"/>
<path opacity="0.1" d="M18.8751 34.6238C17.5454 35.0243 16.2481 35.4863 14.967 36.01C12.5022 34.6546 11.7238 34.2388 10.2968 33.3609C9.66463 31.6858 9.29316 29.9321 9.19407 28.1551C11.0751 27.3696 12.4373 26.846 14.8697 26.0143L17.8373 28.1551L20.2048 29.8185L19.5886 31.8977C19.2805 33.0991 19.0859 33.7459 18.8751 34.6238ZM26.5453 28.5864C25.3777 29.0022 24.1615 29.4489 22.0372 30.1265C21.048 33.0375 20.821 33.7459 20.4156 34.747C21.2459 35.335 22.0119 36.0006 22.7021 36.7339C25.6235 34.9358 28.1782 32.6503 30.2426 29.9879C29.713 29.2552 29.1276 28.5603 28.4912 27.9087L26.5453 28.5864ZM8.70759 35.1629L8.30218 35.5633C9.69686 36.8398 11.3451 37.8398 13.1508 38.5051C14.2143 38.8366 15.2972 39.1092 16.394 39.3213C16.1652 39.112 15.9487 38.8909 15.7454 38.6591C15.243 38.0473 14.7929 37.3984 14.3994 36.7185C13.0535 36.01 11.5454 35.1783 9.74542 34.1772C9.385 34.4718 9.05882 34.8023 8.77245 35.1629H8.70759ZM31.8966 19.1913C33.5182 18.4675 34.702 17.9592 35.9182 17.3123C36.229 15.5927 36.3863 13.8513 36.3885 12.1066V10.166C34.9303 8.92143 33.3923 7.76408 31.7831 6.70058C30.3716 7.44531 28.9088 8.0988 27.4048 8.65659C27.3554 10.7222 27.144 12.7815 26.7723 14.8173C28.555 16.1719 30.2499 17.6274 31.848 19.1759L31.8966 19.1913ZM33.8426 2.52672C32.5528 1.64738 31.1728 0.894004 29.7237 0.278076V0.462896C29.7086 0.717077 29.6706 0.969564 29.6101 1.21758C30.8708 2.56543 31.8405 4.1353 32.4642 5.83808C33.7389 6.6871 34.9675 7.59697 36.1452 8.56418C35.9604 6.96506 35.6349 5.38343 35.1723 3.83587C34.7507 3.45082 34.3128 3.05038 33.8101 2.63453L33.8426 2.52672ZM25.2156 15.8954C23.3669 16.5269 23.2534 16.5731 17.8535 18.3597C17.3183 20.5467 16.8156 22.6413 16.3292 25.0132C19.1021 27.0308 20.4156 28.0935 21.194 28.5864L21.5345 28.8328L23.7237 28.1705C25.2318 27.7085 26.6426 27.2772 28.2966 26.7228C29.1677 24.6179 29.8777 22.456 30.421 20.2541C28.7641 18.7189 27.0268 17.2642 25.2156 15.8954ZM3.74546 23.1034C5.26924 24.556 6.89455 25.9093 8.61029 27.154C10.4265 26.3839 11.5778 25.9219 14.3994 24.9362C14.7238 23.1342 15.0157 21.5324 15.8102 18.2518C14.1075 16.8965 12.567 15.6182 10.7022 13.9702C8.17245 14.8943 6.74544 15.5103 4.70221 16.3574C4.10808 18.5631 3.78699 20.827 3.74546 23.1034ZM19.2643 35.5941C17.6427 36.1024 16.7994 36.4104 15.6481 36.8879C16.0015 37.8124 16.5538 38.6569 17.2697 39.3675C18.7355 38.8472 20.1515 38.2083 21.5021 37.4577C20.8158 36.7514 20.0672 36.1021 19.2643 35.5171V35.5941ZM32.2372 20.5621C31.6868 22.7744 30.9548 24.9424 30.048 27.0462C30.502 27.5699 30.9237 28.0781 31.3291 28.5864C33.3146 25.6673 34.747 22.4408 35.5615 19.0527C34.6534 19.4224 33.6966 19.8536 32.2209 20.4851L32.2372 20.5621ZM9.85893 37.5964C9.56852 37.4358 9.28706 37.261 9.01569 37.0727C8.48056 36.6415 7.70219 35.9638 7.58867 35.8406C6.30815 35.1641 5.08307 34.3969 3.92383 33.5457L4.18329 33.8229C4.93156 34.5019 5.73394 35.125 6.58328 35.6865C7.48469 36.3205 8.4331 36.8918 9.42109 37.3961L9.85893 37.5964ZM7.26435 34.7778L7.66976 34.439C8.03826 34.0298 8.44536 33.6535 8.88596 33.3147C8.12249 31.6319 7.65151 29.8426 7.49138 28.0165C5.83438 26.8073 4.2634 25.4952 2.78871 24.0891C1.79928 24.6223 0.928954 25.3338 0.226562 26.1837C0.812342 28.1968 1.74968 30.1023 2.99952 31.8207C4.33272 32.9304 5.77129 33.9203 7.29678 34.7778H7.26435Z" fill="#F1F2F3"/>
<path opacity="0.1" d="M30.502 17.913C29.2858 16.8195 28.2156 15.957 26.8048 14.8327C27.1668 12.7963 27.3674 10.7369 27.4048 8.672C28.9088 8.1142 30.3716 7.46071 31.7831 6.71598C32.569 7.2171 33.3268 7.7569 34.0534 8.33316C33.5137 11.71 32.3089 14.96 30.502 17.913ZM29.7237 0.278076V0.462896C29.7086 0.717078 29.6706 0.969564 29.6102 1.21758C30.8708 2.56543 31.8405 4.13531 32.4642 5.83809C33.0317 6.23853 33.5507 6.62357 34.1669 7.03942C34.248 6.19232 34.2804 5.36063 34.2804 4.49814V2.95797L33.875 2.60373C32.5768 1.69835 31.186 0.919214 29.7237 0.278076ZM8.23732 31.6205C7.85984 30.4518 7.60988 29.2492 7.49138 28.0319C5.83418 26.8174 4.26321 25.5002 2.78871 24.0891C1.80279 24.627 0.933354 25.3378 0.226562 26.1837C0.775566 28.1031 1.65204 29.9241 2.82114 31.5743C3.71303 31.5743 4.60491 31.6821 5.4968 31.6821C6.38868 31.6821 7.32922 31.6975 8.23732 31.6205ZM3.74546 23.1034C5.26924 24.556 6.89455 25.9093 8.61029 27.154C10.4265 26.3839 11.5778 25.9219 14.3994 24.9362C14.7238 23.1342 15.0157 21.5324 15.8102 18.2518C14.1075 16.8965 12.567 15.6182 10.7022 13.9702C8.17246 14.8943 6.74544 15.5103 4.70221 16.3574C4.10808 18.5631 3.78699 20.827 3.74546 23.1034ZM17.9021 18.4829C17.367 20.6699 16.8643 22.7645 16.3778 25.1364C18.2427 26.4917 19.4426 27.385 20.2535 28.0011C23.9673 25.8894 27.1322 23.0098 29.5129 19.5764C28.3615 18.5291 27.2588 17.5742 25.248 16.0186C23.3994 16.5269 23.2859 16.5731 17.8373 18.3597L17.9021 18.4829ZM14.8535 26.1837C12.4373 27.0308 11.0589 27.5391 9.17785 28.3245C9.29527 29.3814 9.47938 30.4306 9.7292 31.4665C12.853 31.024 15.8778 30.0924 18.6805 28.7096L17.8373 28.1705L14.8535 26.1837Z" fill="#F1F2F3"/>
<defs>
<radialGradient id="paint0_radial_107_311" cx="0" cy="0" r="1" gradientUnits="userSpaceOnUse" gradientTransform="translate(20.9999 24.059) scale(18.9891 18.0354)">
<stop stop-color="#FCEA0D"/>
<stop offset="0.07" stop-color="#FAD90D"/>
<stop offset="0.53" stop-color="#ED6910"/>
<stop offset="0.85" stop-color="#E52212"/>
<stop offset="1" stop-color="#E20613"/>
</radialGradient>
<radialGradient id="paint1_radial_107_311" cx="0" cy="0" r="1" gradientUnits="userSpaceOnUse" gradientTransform="translate(23.1525 19.8371) scale(18.2431 17.3269)">
<stop stop-color="#FCEA0D"/>
<stop offset="0.07" stop-color="#FAD90D"/>
<stop offset="0.53" stop-color="#ED6910"/>
<stop offset="0.85" stop-color="#E52212"/>
<stop offset="1" stop-color="#E20613"/>
</radialGradient>
<radialGradient id="paint2_radial_107_311" cx="0" cy="0" r="1" gradientUnits="userSpaceOnUse" gradientTransform="translate(23.2048 24.9985) scale(15.8107 15.0166)">
<stop stop-color="#FCEA0D"/>
<stop offset="0.07" stop-color="#FAD90D"/>
<stop offset="0.53" stop-color="#ED6910"/>
<stop offset="0.85" stop-color="#E52212"/>
<stop offset="1" stop-color="#E20613"/>
</radialGradient>
<radialGradient id="paint3_radial_107_311" cx="0" cy="0" r="1" gradientUnits="userSpaceOnUse" gradientTransform="translate(24.7619 20.8547) scale(15.4053 14.6316)">
<stop stop-color="#FCEA0D"/>
<stop offset="0.07" stop-color="#FAD90D"/>
<stop offset="0.53" stop-color="#ED6910"/>
<stop offset="0.85" stop-color="#E52212"/>
<stop offset="1" stop-color="#E20613"/>
</radialGradient>
</defs>
</svg>
