<svg width="1073" height="123" fill="none" xmlns="http://www.w3.org/2000/svg"><rect x="-420" width="1493" height="123" rx="61.5" fill="#EB5C28"/><mask id="a" style="mask-type:alpha" maskUnits="userSpaceOnUse" x="-420" y="0" width="1493" height="123"><rect x="-420" width="1493" height="123" rx="61.5" fill="#EB5C28"/></mask><g mask="url(#a)"><path d="M6.175 145a117.06 117.06 0 01-13.297-3.712A61.47 61.47 0 01-27 128.249l1.725-1.585c1.27-1.312 2.36-2.49 4.13-4.029 7.442 4.527 13.614 7.968 19.242 11.047a63.444 63.444 0 005.582 8.421A30.095 30.095 0 006.175 145zM.366 130.377c-10.166-5.886-13.161-7.697-19.333-11.545a78.334 78.334 0 01-4.539-22.636c7.761-3.441 13.615-5.66 23.464-9.326l12.525 9.326 9.803 7.243-2.587 9.055c-1.407 4.98-2.224 7.787-3.086 11.59a170.034 170.034 0 00-16.247 6.293zm27.23-31.193l-1.407-1.132c-2.904-2.354-8.35-6.746-19.832-15.483 1.996-10.323 4.084-19.422 6.308-28.975 22.328-7.787 22.691-7.923 30.452-10.73A272.832 272.832 0 0164.402 61.88a202.5 202.5 0 01-8.805 28.114c-6.807 2.4-12.662 4.301-18.925 6.293l-9.076 2.898zm42.842-41.968a244.41 244.41 0 00-20.922-18.924 178.549 178.549 0 002.36-26.893 144.392 144.392 0 0018.153-8.51 192.78 192.78 0 0119.379 15.709 96.834 96.834 0 011.906 27.979A191.805 191.805 0 0170.3 57.216h.137zM91.722 14.07a175.428 175.428 0 00-19.06-15.257 59.864 59.864 0 00-11.71-19.74c0-1.131.318-2.218.454-3.26V-25a100.173 100.173 0 0116.928 9.87A83.796 83.796 0 0195.943 6.329c.272 1.222-.318 3.667-4.22 7.742z" fill="#F5F5F5"/><path d="M153.165 78l-.045-20.88-10.35 17.28h-2.61l-10.35-17.01V78h-5.58V46.5h4.815l12.51 20.88L153.84 46.5h4.815L158.7 78h-5.535zm16.294-31.5h5.85V78h-5.85V46.5zm16.62 0h13.77c3.36 0 6.345.66 8.955 1.98 2.61 1.29 4.635 3.135 6.075 5.535 1.44 2.37 2.16 5.115 2.16 8.235 0 3.12-.72 5.88-2.16 8.28-1.44 2.37-3.465 4.215-6.075 5.535-2.61 1.29-5.595 1.935-8.955 1.935h-13.77V46.5zm13.5 26.55c2.31 0 4.335-.435 6.075-1.305 1.77-.9 3.12-2.16 4.05-3.78.96-1.65 1.44-3.555 1.44-5.715 0-2.16-.48-4.05-1.44-5.67-.93-1.65-2.28-2.91-4.05-3.78-1.74-.9-3.765-1.35-6.075-1.35h-7.65v21.6h7.65zm35.692 5.4c-2.43 0-4.785-.345-7.065-1.035-2.25-.69-4.035-1.605-5.355-2.745l2.025-4.545c1.29 1.02 2.865 1.86 4.725 2.52 1.89.63 3.78.945 5.67.945 2.34 0 4.08-.375 5.22-1.125 1.17-.75 1.755-1.74 1.755-2.97 0-.9-.33-1.635-.99-2.205-.63-.6-1.44-1.065-2.43-1.395-.99-.33-2.34-.705-4.05-1.125-2.4-.57-4.35-1.14-5.85-1.71a9.905 9.905 0 01-3.825-2.655c-1.05-1.23-1.575-2.88-1.575-4.95 0-1.74.465-3.315 1.395-4.725.96-1.44 2.385-2.58 4.275-3.42 1.92-.84 4.26-1.26 7.02-1.26 1.92 0 3.81.24 5.67.72 1.86.48 3.465 1.17 4.815 2.07l-1.845 4.545a18.202 18.202 0 00-4.32-1.845c-1.5-.42-2.955-.63-4.365-.63-2.31 0-4.035.39-5.175 1.17-1.11.78-1.665 1.815-1.665 3.105 0 .9.315 1.635.945 2.205.66.57 1.485 1.02 2.475 1.35.99.33 2.34.705 4.05 1.125 2.34.54 4.26 1.11 5.76 1.71a9.48 9.48 0 013.825 2.655c1.08 1.2 1.62 2.82 1.62 4.86 0 1.74-.48 3.315-1.44 4.725-.93 1.41-2.355 2.535-4.275 3.375-1.92.84-4.26 1.26-7.02 1.26zm35.501 0c-3.21 0-6.105-.69-8.685-2.07-2.58-1.41-4.605-3.345-6.075-5.805-1.47-2.49-2.205-5.265-2.205-8.325 0-3.06.735-5.82 2.205-8.28 1.47-2.49 3.495-4.425 6.075-5.805 2.58-1.41 5.475-2.115 8.685-2.115 3.21 0 6.105.705 8.685 2.115 2.58 1.38 4.605 3.3 6.075 5.76 1.47 2.46 2.205 5.235 2.205 8.325 0 3.09-.735 5.865-2.205 8.325-1.47 2.46-3.495 4.395-6.075 5.805-2.58 1.38-5.475 2.07-8.685 2.07zm0-5.13c2.1 0 3.99-.465 5.67-1.395 1.68-.96 3-2.28 3.96-3.96.96-1.71 1.44-3.615 1.44-5.715 0-2.1-.48-3.99-1.44-5.67-.96-1.71-2.28-3.03-3.96-3.96-1.68-.96-3.57-1.44-5.67-1.44s-3.99.48-5.67 1.44c-1.68.93-3 2.25-3.96 3.96-.96 1.68-1.44 3.57-1.44 5.67s.48 4.005 1.44 5.715c.96 1.68 2.28 3 3.96 3.96 1.68.93 3.57 1.395 5.67 1.395zM325.123 78l-.045-20.88-10.35 17.28h-2.61l-10.35-17.01V78h-5.58V46.5h4.815l12.51 20.88 12.285-20.88h4.815l.045 31.5h-5.535zm45.229 0l-.045-20.88-10.35 17.28h-2.61l-10.35-17.01V78h-5.58V46.5h4.815l12.51 20.88 12.285-20.88h4.815l.045 31.5h-5.535zm36.723-7.29h-15.75L388.22 78h-6.03l14.175-31.5h5.76l14.22 31.5h-6.12l-3.15-7.29zm-1.935-4.59l-5.94-13.77-5.895 13.77h11.835zM443.211 78l-6.435-9.225c-.27.03-.675.045-1.215.045h-7.11V78h-5.85V46.5h12.96c2.73 0 5.1.45 7.11 1.35 2.04.9 3.6 2.19 4.68 3.87 1.08 1.68 1.62 3.675 1.62 5.985 0 2.37-.585 4.41-1.755 6.12-1.14 1.71-2.79 2.985-4.95 3.825L449.511 78h-6.3zm-.135-20.295c0-2.01-.66-3.555-1.98-4.635-1.32-1.08-3.255-1.62-5.805-1.62h-6.84v12.555h6.84c2.55 0 4.485-.54 5.805-1.62 1.32-1.11 1.98-2.67 1.98-4.68zm25.535 7.11l-4.995 5.13V78h-5.85V46.5h5.85v16.155l15.57-16.155h6.57l-13.23 14.085L486.566 78h-6.84l-11.115-13.185zM513.409 78l-6.435-9.225c-.27.03-.675.045-1.215.045h-7.11V78h-5.85V46.5h12.96c2.73 0 5.1.45 7.11 1.35 2.04.9 3.6 2.19 4.68 3.87 1.08 1.68 1.62 3.675 1.62 5.985 0 2.37-.585 4.41-1.755 6.12-1.14 1.71-2.79 2.985-4.95 3.825L519.709 78h-6.3zm-.135-20.295c0-2.01-.66-3.555-1.98-4.635-1.32-1.08-3.255-1.62-5.805-1.62h-6.84v12.555h6.84c2.55 0 4.485-.54 5.805-1.62 1.32-1.11 1.98-2.67 1.98-4.68zm35.12 13.005h-15.75L529.539 78h-6.03l14.175-31.5h5.76l14.22 31.5h-6.12l-3.15-7.29zm-1.935-4.59l-5.94-13.77-5.895 13.77h11.835zM591.91 46.5V78h-4.815l-17.37-21.33V78h-5.805V46.5h4.815l17.37 21.33V46.5h5.805zm20.456 31.95c-2.43 0-4.785-.345-7.065-1.035-2.25-.69-4.035-1.605-5.355-2.745l2.025-4.545c1.29 1.02 2.865 1.86 4.725 2.52 1.89.63 3.78.945 5.67.945 2.34 0 4.08-.375 5.22-1.125 1.17-.75 1.755-1.74 1.755-2.97 0-.9-.33-1.635-.99-2.205-.63-.6-1.44-1.065-2.43-1.395-.99-.33-2.34-.705-4.05-1.125-2.4-.57-4.35-1.14-5.85-1.71a9.905 9.905 0 01-3.825-2.655c-1.05-1.23-1.575-2.88-1.575-4.95 0-1.74.465-3.315 1.395-4.725.96-1.44 2.385-2.58 4.275-3.42 1.92-.84 4.26-1.26 7.02-1.26 1.92 0 3.81.24 5.67.72 1.86.48 3.465 1.17 4.815 2.07l-1.845 4.545a18.202 18.202 0 00-4.32-1.845c-1.5-.42-2.955-.63-4.365-.63-2.31 0-4.035.39-5.175 1.17-1.11.78-1.665 1.815-1.665 3.105 0 .9.315 1.635.945 2.205.66.57 1.485 1.02 2.475 1.35.99.33 2.34.705 4.05 1.125 2.34.54 4.26 1.11 5.76 1.71a9.48 9.48 0 013.825 2.655c1.08 1.2 1.62 2.82 1.62 4.86 0 1.74-.48 3.315-1.44 4.725-.93 1.41-2.355 2.535-4.275 3.375-1.92.84-4.26 1.26-7.02 1.26zm44.411-5.355V78h-23.625V46.5h22.995v4.905h-17.145v8.19h15.21v4.815h-15.21v8.685h17.775zM693.538 46.5V78h-4.815l-17.37-21.33V78h-5.805V46.5h4.815l17.37 21.33V46.5h5.805zm25.378 0h13.77c3.36 0 6.345.66 8.955 1.98 2.61 1.29 4.635 3.135 6.075 5.535 1.44 2.37 2.16 5.115 2.16 8.235 0 3.12-.72 5.88-2.16 8.28-1.44 2.37-3.465 4.215-6.075 5.535-2.61 1.29-5.595 1.935-8.955 1.935h-13.77V46.5zm13.5 26.55c2.31 0 4.335-.435 6.075-1.305 1.77-.9 3.12-2.16 4.05-3.78.96-1.65 1.44-3.555 1.44-5.715 0-2.16-.48-4.05-1.44-5.67-.93-1.65-2.28-2.91-4.05-3.78-1.74-.9-3.765-1.35-6.075-1.35h-7.65v21.6h7.65zm49.552.045V78h-23.625V46.5h22.995v4.905h-17.145v8.19h15.21v4.815h-15.21v8.685h17.775zM819.1 46.5L805.375 78h-5.76l-13.77-31.5h6.345l10.485 24.3 10.575-24.3h5.85zm19.938 31.95c-3.21 0-6.105-.69-8.685-2.07-2.58-1.41-4.605-3.345-6.075-5.805-1.47-2.49-2.205-5.265-2.205-8.325 0-3.06.735-5.82 2.205-8.28 1.47-2.49 3.495-4.425 6.075-5.805 2.58-1.41 5.475-2.115 8.685-2.115 3.21 0 6.105.705 8.685 2.115 2.58 1.38 4.605 3.3 6.075 5.76 1.47 2.46 2.205 5.235 2.205 8.325 0 3.09-.735 5.865-2.205 8.325-1.47 2.46-3.495 4.395-6.075 5.805-2.58 1.38-5.475 2.07-8.685 2.07zm0-5.13c2.1 0 3.99-.465 5.67-1.395 1.68-.96 3-2.28 3.96-3.96.96-1.71 1.44-3.615 1.44-5.715 0-2.1-.48-3.99-1.44-5.67-.96-1.71-2.28-3.03-3.96-3.96-1.68-.96-3.57-1.44-5.67-1.44s-3.99.48-5.67 1.44c-1.68.93-3 2.25-3.96 3.96-.96 1.68-1.44 3.57-1.44 5.67s.48 4.005 1.44 5.715c.96 1.68 2.28 3 3.96 3.96 1.68.93 3.57 1.395 5.67 1.395zm38.376-26.82c2.73 0 5.1.45 7.11 1.35 2.04.9 3.6 2.19 4.68 3.87 1.08 1.68 1.62 3.675 1.62 5.985 0 2.28-.54 4.275-1.62 5.985-1.08 1.68-2.64 2.97-4.68 3.87-2.01.9-4.38 1.35-7.11 1.35h-7.11V78h-5.85V46.5h12.96zm-.27 17.46c2.55 0 4.485-.54 5.805-1.62 1.32-1.08 1.98-2.625 1.98-4.635s-.66-3.555-1.98-4.635c-1.32-1.08-3.255-1.62-5.805-1.62h-6.84v12.51h6.84zm31.976 14.49c-2.43 0-4.785-.345-7.065-1.035-2.25-.69-4.035-1.605-5.355-2.745l2.025-4.545c1.29 1.02 2.865 1.86 4.725 2.52 1.89.63 3.78.945 5.67.945 2.34 0 4.08-.375 5.22-1.125 1.17-.75 1.755-1.74 1.755-2.97 0-.9-.33-1.635-.99-2.205-.63-.6-1.44-1.065-2.43-1.395-.99-.33-2.34-.705-4.05-1.125-2.4-.57-4.35-1.14-5.85-1.71a9.905 9.905 0 01-3.825-2.655c-1.05-1.23-1.575-2.88-1.575-4.95 0-1.74.465-3.315 1.395-4.725.96-1.44 2.385-2.58 4.275-3.42 1.92-.84 4.26-1.26 7.02-1.26 1.92 0 3.81.24 5.67.72 1.86.48 3.465 1.17 4.815 2.07l-1.845 4.545a18.202 18.202 0 00-4.32-1.845c-1.5-.42-2.955-.63-4.365-.63-2.31 0-4.035.39-5.175 1.17-1.11.78-1.665 1.815-1.665 3.105 0 .9.315 1.635.945 2.205.66.57 1.485 1.02 2.475 1.35.99.33 2.34.705 4.05 1.125 2.34.54 4.26 1.11 5.76 1.71a9.48 9.48 0 013.825 2.655c1.08 1.2 1.62 2.82 1.62 4.86 0 1.74-.48 3.315-1.44 4.725-.93 1.41-2.355 2.535-4.275 3.375-1.92.84-4.26 1.26-7.02 1.26zm55.902-7.74h-15.75L946.167 78h-6.03l14.175-31.5h5.76l14.22 31.5h-6.12l-3.15-7.29zm-1.935-4.59l-5.94-13.77-5.895 13.77h11.835zm39.783-4.5c1.74.57 3.12 1.53 4.14 2.88 1.02 1.32 1.53 2.97 1.53 4.95 0 2.73-1.05 4.845-3.15 6.345-2.1 1.47-5.16 2.205-9.182 2.205h-15.66V46.5h14.76c3.72 0 6.582.735 8.592 2.205 2.01 1.44 3.02 3.435 3.02 5.985 0 1.56-.36 2.94-1.08 4.14a7.394 7.394 0 01-2.97 2.79zm-16.472-10.53v8.685h8.28c2.04 0 3.6-.36 4.68-1.08 1.112-.75 1.662-1.83 1.662-3.24 0-1.44-.55-2.52-1.662-3.24-1.08-.75-2.64-1.125-4.68-1.125h-8.28zm9.45 22.32c4.532 0 6.792-1.515 6.792-4.545 0-3.03-2.26-4.545-6.792-4.545h-9.45v9.09h9.45z" fill="#fff"/></g><mask id="b" style="mask-type:alpha" maskUnits="userSpaceOnUse" x="-420" y="0" width="1493" height="123"><rect x="-420" width="1493" height="123" rx="61.5" fill="#fff"/></mask><g mask="url(#b)"><path d="M6.175 145a117.06 117.06 0 01-13.297-3.712A61.47 61.47 0 01-27 128.249l1.725-1.585c1.27-1.312 2.36-2.49 4.13-4.029 7.442 4.527 13.614 7.968 19.242 11.047a63.444 63.444 0 005.582 8.421A30.095 30.095 0 006.175 145zM.366 130.377c-10.166-5.886-13.161-7.697-19.333-11.545a78.334 78.334 0 01-4.539-22.636c7.761-3.441 13.615-5.66 23.464-9.326l12.525 9.326 9.803 7.243-2.587 9.055c-1.407 4.98-2.224 7.787-3.086 11.59a170.034 170.034 0 00-16.247 6.293zm27.23-31.193l-1.407-1.132c-2.904-2.354-8.35-6.746-19.832-15.483 1.996-10.323 4.084-19.422 6.308-28.975 22.328-7.787 22.691-7.923 30.452-10.73A272.832 272.832 0 0164.402 61.88a202.5 202.5 0 01-8.805 28.114c-6.807 2.4-12.662 4.301-18.925 6.293l-9.076 2.898zm42.842-41.968a244.41 244.41 0 00-20.922-18.924 178.549 178.549 0 002.36-26.893 144.392 144.392 0 0018.153-8.51 192.78 192.78 0 0119.379 15.709 96.834 96.834 0 011.906 27.979A191.805 191.805 0 0170.3 57.216h.137zM91.722 14.07a175.428 175.428 0 00-19.06-15.257 59.864 59.864 0 00-11.71-19.74c0-1.131.318-2.218.454-3.26V-25a100.173 100.173 0 0116.928 9.87A83.796 83.796 0 0195.943 6.329c.272 1.222-.318 3.667-4.22 7.742z" fill="#F5F5F5"/></g></svg>