<svg width="457" height="77" viewBox="0 0 457 77" fill="none" xmlns="http://www.w3.org/2000/svg">
<path d="M26.5709 47.8869C27.1909 44.3146 27.7224 41.2147 29.228 34.69C25.951 31.9444 22.8215 29.5234 19.4854 26.1578C15.6299 27.5309 11.8461 29.0977 8.14842 30.852C7.05894 35.2475 6.49407 39.7566 6.4656 44.2851C9.28605 47.151 12.3049 49.8147 15.4997 52.2564C18.9539 50.6916 21.0501 49.8945 26.4233 47.8869H26.5709ZM16.5921 64.0657C15.176 60.7096 14.2896 57.154 13.9645 53.5259C10.8365 51.1346 7.87712 48.5303 5.10753 45.7317C3.11926 46.8545 1.38124 48.3715 0 50.1897C1.07958 54.1617 2.83748 57.9172 5.1961 61.2905C7.72433 63.5058 10.4521 65.4824 13.3445 67.1952C14.3308 66.0565 15.4177 65.0091 16.5921 64.0657ZM76.4653 35.8119C76.4923 30.5031 75.4897 25.2394 73.513 20.3122C72.7149 18.6562 71.724 17.1003 70.5606 15.677C70.4861 16.4852 70.2458 17.2694 69.8547 17.9805C69.4635 18.6917 68.93 19.3146 68.2873 19.8103C69.3024 23.9505 69.6709 28.2229 69.3797 32.4758C71.3844 35.1329 72.8853 38.1348 73.8082 41.3328C75.2075 40.1744 76.1407 38.5491 76.4358 36.7567V35.9005L76.4653 35.8119ZM14.0531 68.3761C11.2271 66.7925 8.55801 64.9439 6.08179 62.8552C6.30706 63.6885 6.75634 64.4441 7.38082 65.04C8.77801 66.3528 10.2571 67.5755 11.8093 68.7008C13.5041 69.9371 15.2905 71.0424 17.153 72.0075C18.8654 72.8046 21.1387 73.8084 23.0577 74.4579C23.0577 74.4579 17.9797 71.5056 16.8873 70.7675C15.795 70.0294 14.0826 68.4351 14.0826 68.4351L14.0531 68.3761ZM67.6673 54.943C69.9098 51.1056 71.5994 46.9709 72.6863 42.6613C71.575 39.5632 69.9589 36.6703 67.9035 34.0996C64.7966 35.9434 61.5716 37.5805 58.2494 39.0004C57.2114 43.3545 55.8293 47.6192 54.1162 51.7545C56.1148 53.9252 57.7767 56.3833 59.0466 59.0467C62.0331 57.9545 64.926 56.6216 67.6969 55.0611L67.6673 54.943ZM49.7467 69.0256C52.4587 66.3244 54.8918 63.3572 57.0094 60.1686C55.6541 57.5928 53.9338 55.2262 51.9019 53.1421C48.0344 54.5001 45.9973 55.5039 39.7679 57.5115C37.7603 63.4162 37.4355 64.7152 36.8155 66.8999C38.65 68.1981 40.2732 69.7715 41.6278 71.5646C49.0972 69.3208 49.5991 69.0846 49.7172 69.0846L49.7467 69.0256ZM67.9035 60.7296C72.8083 54.3951 75.7352 46.7544 76.3177 38.7642C75.9766 40.4125 75.0931 41.8989 73.8082 42.9861C72.7376 47.2917 71.0469 51.4189 68.7892 55.2382C68.7512 57.6416 68.0348 59.9852 66.7226 61.9991C67.177 61.5984 67.6106 61.1747 68.0216 60.7296H67.9035ZM36.5498 76.495C37.9332 75.1913 39.1526 73.724 40.1812 72.1255C38.7266 70.4299 37.0481 68.94 35.1917 67.6971C32.7804 68.4561 30.4146 69.3531 28.1062 70.3837C28.8772 72.6982 30.2902 74.746 32.1804 76.2883C33.5931 76.6114 35.0491 76.7011 36.4908 76.554L36.5498 76.495ZM55.4152 71.0922C59.1184 68.9328 62.4812 66.2366 65.3941 63.0914C66.6391 61.1275 67.2569 58.8312 67.1655 56.5077C64.4186 57.9725 61.5782 59.2546 58.6628 60.3458C56.3158 63.5721 53.6339 66.541 50.6619 69.2027C50.1872 70.8304 49.4813 72.3814 48.5658 73.8084C50.8912 73.2265 53.1404 72.3744 55.2676 71.2694L55.4152 71.0922ZM37.2879 76.6721C40.7459 76.4437 44.1258 75.5411 47.2372 74.015C47.9399 72.8834 48.4861 71.6618 48.861 70.3837C45.9087 71.2989 45.9087 71.2989 41.3916 72.5979C41.3916 72.5979 39.0002 74.9893 37.3765 76.4655L37.2879 76.6721Z" fill="url(#paint0_radial_107_32)"/>
<path d="M69.6169 14.2007C67.6233 10.6049 65.0497 7.36291 61.9999 4.60563C59.4647 2.78664 56.743 1.24273 53.881 0C53.881 0.708559 53.6743 1.56473 53.5562 2.42091C55.8649 5.01035 57.6585 8.01639 58.8409 11.2779C61.8955 13.4027 64.796 15.7409 67.5207 18.2749C69.2035 16.474 69.9416 15.1159 69.7054 14.2597L69.6169 14.2007ZM67.6979 32.4756C68.0232 28.2136 67.7249 23.9269 66.8122 19.7511C64.0261 17.1433 61.067 14.7267 57.9552 12.5179C55.2953 14.0447 52.5332 15.3863 49.6887 16.533C49.6008 20.6297 49.216 24.7146 48.5373 28.7557C51.8425 31.4321 54.9872 34.3008 57.9552 37.3469C61.2874 35.9171 64.5223 34.2701 67.6388 32.4166L67.6979 32.4756ZM51.7848 51.6362C53.4331 47.4685 54.7751 43.1861 55.8 38.8231C52.7204 35.7779 49.4883 32.8907 46.1163 30.1728C42.5145 31.4718 42.5145 31.4718 32.329 35.0146C31.3252 39.3841 30.3509 43.5173 29.3766 48.2115C35.7242 53.0829 37.8794 54.9133 39.0012 55.799C43.4888 54.3524 47.1201 53.2305 51.6667 51.6362H51.7848ZM34.6318 66.7226C35.1927 64.1246 35.6651 62.737 37.2003 57.1571L27.0738 49.481C22.4092 51.1934 19.8997 52.1381 16.2978 53.7619C16.4733 57.3208 17.1798 60.8336 18.394 64.1836C21.3463 65.9255 22.5272 66.7521 27.251 69.4388C29.6719 68.3759 32.1814 67.4312 34.7204 66.4864L34.6318 66.7226ZM26.4538 70.1178C23.9148 68.7007 21.0806 67.1655 17.5969 65.0693C16.5431 65.9812 15.5564 66.9679 14.6445 68.0216C17.1834 70.6846 20.2369 72.8039 23.6196 74.251C26.0221 75.0472 28.4789 75.6689 30.9709 76.111C30.0924 75.5422 29.3308 74.8107 28.7271 73.9558C27.9232 72.7674 27.203 71.5244 26.5719 70.2359L26.4538 70.1178Z" fill="url(#paint1_radial_107_32)"/>
<path d="M35.0429 76.2292C34.1053 76.2196 33.1727 76.0906 32.2677 75.8454C30.5554 74.4318 29.2509 72.5872 28.4887 70.5017C30.641 69.5754 32.8383 68.7575 35.0724 68.0512C36.7594 69.1935 38.3054 70.5314 39.6781 72.0369C38.7056 73.4853 37.5878 74.8307 36.3419 76.052H35.0429V76.2292ZM38.379 75.993C39.7666 74.7235 41.3314 73.1883 41.6856 72.8635L45.258 71.8597L48.476 70.856C48.1406 71.871 47.726 72.8581 47.236 73.8083C44.4429 75.0741 41.4405 75.8147 38.379 75.993ZM49.3617 73.0407C50.0386 71.9372 50.5836 70.758 50.9855 69.5274C53.9091 66.8525 56.5505 63.8846 58.8682 60.6704C61.5878 59.6355 64.2489 58.4529 66.8395 57.1276C66.8041 59.2172 66.202 61.258 65.0976 63.0323C62.1838 66.103 58.8429 68.7379 55.1778 70.856C53.3486 71.7947 51.4167 72.5179 49.4207 73.0112L49.3617 73.0407ZM17.9489 72.0664L17.0928 71.6826C15.3173 70.7083 13.6108 69.6134 11.9852 68.4055C10.496 67.3581 9.08495 66.2037 7.76341 64.9513L7.29103 64.4199C9.40629 66.045 11.6362 67.5151 13.9633 68.8188C14.1995 69.055 15.5871 70.3541 16.5909 71.1807C17.0155 71.5168 17.4701 71.8133 17.9489 72.0664ZM41.7152 71.0626C40.3946 69.4073 38.8665 67.9289 37.1686 66.6636L40.1209 57.8067C44.018 56.5372 46.2322 55.681 48.3579 54.8543L52.0188 53.5553C53.8926 55.5189 55.4826 57.735 56.7425 60.139C54.6799 63.2378 52.3164 66.1254 49.6865 68.7598L41.8923 71.1217L41.7152 71.0626ZM13.2843 66.6636C10.5105 65.0479 7.89156 63.1801 5.46059 61.0837C3.17616 57.7627 1.46931 54.0795 0.412109 50.1897C1.69053 48.5363 3.27398 47.1432 5.07679 46.0859C7.76128 48.7909 10.6214 51.3157 13.6385 53.6439C13.9332 57.1342 14.7906 60.5539 16.1775 63.7704C15.3754 64.4198 14.6342 65.1412 13.9633 65.9256L13.2843 66.6636ZM68.1976 59.8733C68.7406 58.427 69.0399 56.9005 69.0833 55.3562C71.3557 51.5792 73.0382 47.4774 74.0727 43.1926C74.7197 42.6005 75.2855 41.9255 75.7555 41.1851C74.8551 47.9528 72.2549 54.3822 68.1976 59.8733ZM59.3406 58.4857C58.1312 56.0246 56.5916 53.7401 54.7645 51.6953C56.4462 47.6739 57.7796 43.5156 58.7501 39.266C61.9108 37.9143 64.9695 36.3356 67.9023 34.5423C69.8104 37.0221 71.3058 39.7935 72.3308 42.7498C71.2399 46.9508 69.5811 50.9835 67.4004 54.7362C64.7773 56.1588 62.0654 57.4113 59.2815 58.4857H59.3406ZM15.5576 51.902C12.435 49.5466 9.4759 46.982 6.70057 44.226C6.73683 39.8379 7.28173 35.4688 8.32435 31.2062C12.1624 29.5234 14.7604 28.4015 19.3661 26.571C22.6431 29.73 25.5659 32.1805 28.6659 34.7785C27.2192 41.126 26.5697 44.285 26.0974 47.6507C22.5088 48.8733 18.9902 50.2926 15.5576 51.902ZM74.0136 40.6241C73.0638 37.7057 71.6589 34.9557 69.8509 32.4757C70.0908 28.269 69.7027 24.0501 68.6995 19.9578C69.6854 19.0629 70.3753 17.8889 70.6775 16.5922C71.6178 17.8503 72.401 19.2185 73.0098 20.6664C74.9727 25.5358 75.9752 30.7388 75.9622 35.989V36.8451C75.7322 38.3016 75.0262 39.6408 73.9546 40.6536L74.0136 40.6241Z" fill="url(#paint2_radial_107_32)"/>
<path d="M29.789 75.4913C27.7892 75.0601 25.8173 74.508 23.8843 73.838C20.5689 72.4781 17.5578 70.4708 15.0273 67.9334L15.7949 67.2543C16.3559 66.6639 16.8283 66.162 17.5959 65.483C20.873 67.461 23.5005 68.9962 26.069 70.3543C26.7787 71.6523 27.5985 72.887 28.5195 74.0447C28.913 74.5522 29.3369 75.0353 29.789 75.4913ZM27.25 69.0257C22.7624 66.4277 21.3453 65.6306 18.7473 63.9477C17.5964 60.7368 16.9201 57.3751 16.7397 53.9689C20.1644 52.4632 22.6443 51.4594 27.0728 49.8651L32.4756 53.9689L36.786 57.1574L35.6641 61.143C35.0441 63.3573 34.6898 64.5973 34.306 66.2506C31.9737 67.0477 29.5233 67.9039 27.25 69.0257ZM39.0593 55.2679L38.4393 54.7955C37.1698 53.7327 34.7784 51.8432 29.5823 47.9461C30.468 43.3995 31.3832 39.3844 32.3575 35.1921C42.1888 31.7674 42.3364 31.6788 45.7611 30.4683C49.0183 33.0953 52.1419 35.8838 55.12 38.8234C54.1208 43.045 52.8184 47.1891 51.2229 51.2232C48.2706 52.286 45.6725 53.1127 42.9268 53.9984L39.0593 55.2679ZM57.8951 36.7863C54.9989 33.8259 51.9331 31.0362 48.7134 28.4312C49.3515 24.526 49.6969 20.5786 49.7467 16.6219C52.4851 15.5527 55.1482 14.3 57.718 12.8725C60.7099 14.9864 63.5601 17.2942 66.2502 19.7809C67.1297 23.8317 67.4082 27.9898 67.0769 32.1216C64.092 33.8675 61.0064 35.435 57.8361 36.8158L57.8951 36.7863ZM67.4016 17.7143C64.7772 15.2962 61.9853 13.0666 59.0466 11.042C57.9047 7.83168 56.15 4.87376 53.88 2.33266C53.9178 1.84651 53.9868 1.3633 54.0866 0.886018V0.531738C56.7077 1.73341 59.2004 3.19736 61.5265 4.90118C64.6217 7.58918 67.2373 10.7839 69.2616 14.3486C69.3797 14.762 69.1435 15.9724 67.4016 17.7143Z" fill="url(#paint3_radial_107_32)"/>
<path opacity="0.1" d="M34.3639 66.3686C31.943 67.1363 29.5811 68.0219 27.2488 69.0257C22.7612 66.4277 21.3441 65.6306 18.7461 63.9477C17.5952 60.7368 16.9189 57.3751 16.7385 53.9689C20.1632 52.4632 22.6431 51.4594 27.0716 49.8651L32.4744 53.9689L36.7848 57.1574L35.6629 61.143C35.102 63.4458 34.7477 64.6858 34.3639 66.3686ZM48.3284 54.7955C46.2027 55.5926 43.9885 56.4488 40.1209 57.7478C38.32 63.3277 37.9067 64.6858 37.1686 66.6048C38.6802 67.7318 40.0747 69.0077 41.3314 70.4133C46.6502 66.9666 51.3013 62.5856 55.0597 57.4821C54.0955 56.0776 53.0298 54.7455 51.8712 53.4965L48.3284 54.7955ZM15.8528 67.402L15.1147 68.1696C17.6539 70.6163 20.6547 72.5332 23.9422 73.8085C25.8784 74.4441 27.8499 74.9665 29.8468 75.3732C29.4303 74.972 29.036 74.5482 28.6659 74.1037C27.7512 72.9311 26.9318 71.6871 26.2155 70.3838C23.765 69.0257 21.0194 67.4315 17.7423 65.5125C17.0861 66.0773 16.4922 66.7107 15.9709 67.402H15.8528ZM58.0711 36.7863C61.0234 35.3987 63.1786 34.4245 65.3928 33.1845C65.9586 29.8882 66.2451 26.5501 66.249 23.2056V19.4857C63.5943 17.1001 60.794 14.8815 57.8644 12.8429C55.2946 14.2705 52.6315 15.5232 49.8931 16.5924C49.8032 20.552 49.4184 24.4993 48.7417 28.4017C51.9872 30.9984 55.0731 33.7885 57.9825 36.7568L58.0711 36.7863ZM61.6139 4.84214C59.2657 3.15653 56.7533 1.7124 54.115 0.531738V0.886018C54.0876 1.37325 54.0184 1.85724 53.9083 2.33266C56.2035 4.91634 57.9689 7.92561 59.1044 11.1896C61.4252 12.8171 63.662 14.5612 65.8062 16.4153C65.4696 13.3499 64.8771 10.3181 64.0348 7.35161C63.2672 6.61353 62.47 5.84593 61.5548 5.0488L61.6139 4.84214ZM45.9075 30.4683C42.5418 31.6788 42.3352 31.7674 32.5039 35.1921C31.5296 39.3844 30.6144 43.3995 29.7287 47.9461C34.7772 51.8137 37.1686 53.8508 38.5857 54.7955L39.2057 55.2679L43.1913 53.9984C45.937 53.1127 48.5055 52.286 51.5169 51.2232C53.1028 47.1884 54.3953 43.0444 55.3845 38.8234C52.368 35.8807 49.205 33.0922 45.9075 30.4683ZM6.81866 44.2852C9.59288 47.0698 12.5519 49.6639 15.6756 52.0499C18.9823 50.5737 21.0784 49.688 26.2155 47.7985C26.8059 44.3443 27.3373 41.2739 28.784 34.9854C25.684 32.3874 22.8793 29.9369 19.4841 26.7779C14.8785 28.5493 12.2805 29.7303 8.56053 31.354C7.47886 35.582 6.89428 39.9218 6.81866 44.2852ZM35.0724 68.2286C32.1201 69.2029 30.5849 69.7934 28.4887 70.7086C29.1322 72.4807 30.1377 74.0995 31.4411 75.4618C34.1097 74.4644 36.6877 73.2396 39.1466 71.8009C37.8973 70.4469 36.5342 69.2024 35.0724 68.081V68.2286ZM58.6911 39.4139C57.689 43.6547 56.3564 47.8105 54.7054 51.8432C55.5321 52.847 56.2997 53.8213 57.0378 54.7955C60.6527 49.2 63.2605 43.0151 64.7433 36.5206C63.09 37.2292 61.3482 38.0558 58.6615 39.2663L58.6911 39.4139ZM17.9489 72.0666C17.4202 71.7588 16.9078 71.4237 16.4137 71.0628C15.4395 70.2362 14.0223 68.9372 13.8157 68.701C11.4843 67.4042 9.25394 65.9337 7.14342 64.302L7.61579 64.8334C8.9781 66.135 10.4389 67.3293 11.9852 68.4058C13.6264 69.6209 15.353 70.7162 17.1518 71.6828L17.9489 72.0666ZM13.2252 66.6639L13.9633 66.0144C14.6342 65.23 15.3754 64.5086 16.1775 63.8592C14.7875 60.6334 13.9301 57.2035 13.6385 53.7032C10.6218 51.3852 7.76164 48.8702 5.07679 46.1747C3.27542 47.1968 1.69089 48.5607 0.412109 50.1899C1.47859 54.0488 3.18511 57.7014 5.46059 60.9954C7.88784 63.1224 10.5069 65.02 13.2843 66.6639H13.2252Z" fill="#F1F2F3"/>
<path opacity="0.1" d="M55.5321 34.3359C53.3178 32.2397 51.3693 30.5864 48.8008 28.4312C49.4599 24.5277 49.8251 20.5802 49.8931 16.6219C52.6315 15.5527 55.2946 14.3 57.8644 12.8725C59.2952 13.8331 60.6749 14.8678 61.9977 15.9724C61.0152 22.4454 58.8218 28.6753 55.5321 34.3359ZM54.115 0.531738V0.886018C54.0876 1.37325 54.0184 1.85724 53.9083 2.33266C56.2035 4.91634 57.9689 7.92561 59.1044 11.1896C60.1377 11.9572 61.0825 12.6953 62.2043 13.4925C62.352 11.8687 62.411 10.2744 62.411 8.62112V5.66879L61.6729 4.98975C59.3093 3.25424 56.7773 1.76073 54.115 0.531738ZM14.9966 60.6116C14.3094 58.3712 13.8543 56.0662 13.6385 53.7327C10.6214 51.4045 7.76128 48.8797 5.07679 46.1747C3.28182 47.2059 1.6989 48.5684 0.412109 50.1899C1.41163 53.8692 3.00735 57.3598 5.13583 60.523C6.75961 60.523 8.38339 60.7297 10.0072 60.7297C11.631 60.7297 13.3433 60.7592 14.9966 60.6116ZM6.81866 44.2852C9.59288 47.0698 12.5519 49.6639 15.6756 52.0499C18.9823 50.5737 21.0784 49.688 26.2155 47.7985C26.8059 44.3443 27.3373 41.2739 28.784 34.9854C25.684 32.3874 22.8793 29.9369 19.4841 26.7779C14.8785 28.5493 12.2805 29.7303 8.56053 31.354C7.47886 35.582 6.89428 39.9218 6.81866 44.2852ZM32.5925 35.4283C31.6182 39.6206 30.703 43.6357 29.8173 48.1823C33.2125 50.7804 35.3972 52.4927 36.8734 53.6736C43.6348 49.6258 49.3969 44.1059 53.7312 37.5244C51.635 35.5168 49.6274 33.6864 45.9665 30.7045C42.6009 31.6788 42.3942 31.7674 32.4744 35.1921L32.5925 35.4283ZM27.0421 50.1899C22.6431 51.8137 20.1337 52.7879 16.709 54.2936C16.9227 56.3195 17.2579 58.3307 17.7128 60.3164C23.3999 59.4681 28.9069 57.6823 34.0096 55.0317L32.4744 53.9984L27.0421 50.1899Z" fill="#F1F2F3"/>
<path d="M123.171 8.17775L119.274 30.1431C119.274 30.4678 119.097 30.5564 118.802 30.5564H118.093C117.768 30.5564 117.709 30.5564 117.768 30.1431L120.367 15.3814C120.662 13.6986 121.046 11.9272 121.518 10.0377C120.426 11.691 119.54 12.99 118.329 14.6138L110.949 24.7108C110.887 24.8116 110.8 24.8946 110.696 24.9516C110.593 25.0085 110.476 25.0375 110.358 25.0355H109.974C109.679 25.0355 109.561 25.0355 109.472 24.7108L105.487 14.4662C104.926 13.0196 104.453 11.5139 103.981 10.0377C103.774 11.9272 103.509 13.6396 103.213 15.3814L100.615 30.1431C100.615 30.4678 100.615 30.5859 100.143 30.5859H99.4935C99.1983 30.5859 99.1393 30.5859 99.1983 30.1431L103.066 8.20727C103.066 7.88251 103.066 7.79395 103.509 7.79395H103.981C104.335 7.79395 104.424 7.79394 104.513 8.14822L110.417 23.2346L121.577 8.14822C121.784 7.88251 121.902 7.79395 122.197 7.79395H122.846C122.846 7.79395 123.171 7.85299 123.171 8.17775Z" fill="white"/>
<path d="M131.054 7.76465H131.704C131.999 7.76465 132.088 7.76465 132.058 8.17797L128.22 30.1433C128.22 30.4681 128.013 30.5566 127.718 30.5566H126.95C126.626 30.5566 126.567 30.5566 126.626 30.1433L130.582 8.17797C130.67 7.85322 130.67 7.76465 131.054 7.76465Z" fill="white"/>
<path d="M154.261 16.3265L153.228 22.2311C152.854 24.719 151.54 26.9689 149.558 28.5177C147.575 30.0664 145.074 30.7962 142.57 30.5567H135.956C135.661 30.5567 135.602 30.5567 135.661 30.1138L139.617 8.26659C139.617 7.94184 139.617 7.85327 140.06 7.85327H146.614C152.46 7.7647 155.176 11.1304 154.261 16.3265ZM146.26 9.15229H140.798L137.285 29.11H142.776C144.875 29.2669 146.955 28.6234 148.598 27.3088C150.241 25.9942 151.326 24.1062 151.633 22.0244L152.667 16.1198C153.523 11.8094 151.309 9.15229 146.29 9.15229H146.26Z" fill="white"/>
<path d="M169.495 7.32191C171.086 7.1273 172.693 7.51693 174.018 8.41837C175.343 9.31981 176.296 10.6717 176.699 12.2228C176.699 12.4885 176.699 12.6361 176.433 12.7247L175.843 13.0199C175.518 13.0199 175.429 13.0199 175.341 12.8132C174.986 11.5586 174.198 10.4701 173.117 9.74062C172.037 9.01112 170.733 8.68768 169.436 8.82759C165.332 8.82759 162.646 10.4219 162.144 13.4923C161.376 17.1532 164.742 17.9503 168.314 18.3341C171.887 18.7179 175.961 19.8103 175.105 24.7406C174.189 28.8739 171.237 30.8815 165.628 30.8815C163.865 31.1469 162.068 30.7115 160.622 29.6686C159.177 28.6256 158.197 27.0581 157.893 25.3016C157.893 24.9768 157.893 24.8587 158.217 24.7406L158.867 24.5045C159.192 24.5045 159.251 24.5045 159.369 24.7702C159.602 26.2375 160.399 27.5556 161.591 28.4435C162.782 29.3314 164.273 29.7189 165.746 29.5234C170.381 29.5234 172.979 27.9292 173.599 24.534C174.219 21.1388 171.03 20.2236 167.694 19.8103C163.709 19.3379 159.693 18.216 160.52 13.2561C161.199 9.35901 164.417 7.32191 169.495 7.32191Z" fill="white"/>
<path d="M192.108 7.32212C197.688 7.32212 200.227 10.4811 199.37 15.2934L197.983 23.1171C197.645 25.4454 196.415 27.5512 194.553 28.9892C192.691 30.4271 190.342 31.0846 188.004 30.8226C182.336 30.8226 179.797 27.6932 180.682 22.8514L182.07 15.0572C182.442 12.7315 183.688 10.6357 185.554 9.198C187.42 7.76034 189.764 7.08934 192.108 7.32212ZM191.901 8.85733C189.943 8.63949 187.978 9.19755 186.427 10.4118C184.877 11.626 183.863 13.3997 183.605 15.3524L182.217 23.1466C181.509 27.2503 183.605 29.6712 188.122 29.6712C190.072 29.857 192.018 29.2816 193.553 28.0656C195.088 26.8495 196.094 25.087 196.359 23.1466L197.806 15.2048C198.632 11.1306 196.566 8.85733 191.901 8.85733Z" fill="white"/>
<path d="M227.536 8.17818L223.669 30.1435C223.669 30.4683 223.491 30.5568 223.196 30.5568H222.547C222.281 30.5568 222.192 30.5568 222.251 30.1435L224.85 15.3819C225.145 13.7286 225.529 11.9276 226.001 10.0381C225.032 11.6742 223.967 13.2515 222.812 14.7619L215.343 24.7998C215.281 24.9006 215.194 24.9836 215.091 25.0406C214.987 25.0975 214.871 25.1265 214.753 25.1245H214.339C214.044 25.1245 213.926 25.1245 213.867 24.7998L209.852 14.5552C209.32 13.02 208.848 11.6029 208.346 9.9791C208.169 11.8686 207.874 13.5809 207.578 15.2933L205.01 30.0549C205.01 30.3797 204.833 30.4978 204.508 30.4978H203.888C203.563 30.4978 203.504 30.4978 203.563 30.0549L207.431 8.11913C207.431 7.79438 207.431 7.70581 207.874 7.70581H208.346C208.7 7.70581 208.818 7.70581 208.877 8.06008L214.782 23.1465L226.03 7.97151C226.093 7.85598 226.187 7.76103 226.303 7.69815C226.418 7.63527 226.549 7.60716 226.68 7.61724H227.329C227.416 7.67922 227.482 7.76586 227.519 7.86589C227.556 7.96593 227.562 8.07474 227.536 8.17818Z" fill="white"/>
<path d="M255.198 8.17797L251.33 30.1433C251.33 30.4681 251.153 30.5566 250.858 30.5566H250.208C249.942 30.5566 249.824 30.5566 249.883 30.1433L252.511 15.3817C252.806 13.7284 253.19 11.9274 253.662 10.0379C252.694 11.674 251.629 13.2513 250.474 14.7617L243.004 24.7996C242.943 24.9004 242.856 24.9834 242.752 25.0404C242.649 25.0973 242.532 25.1263 242.414 25.1243H242.089C241.794 25.1243 241.735 25.1243 241.617 24.7996L237.602 14.555C237.011 13.1379 236.598 11.7503 236.096 10.1265C235.919 12.016 235.624 13.7579 235.358 15.4702L232.76 30.2319C232.76 30.5566 232.583 30.6452 232.287 30.6452H231.638C231.313 30.6452 231.254 30.6452 231.313 30.2319L235.181 8.26654C235.181 7.94179 235.181 7.85322 235.624 7.85322H236.185C236.568 7.85322 236.657 7.85322 236.746 8.2075L242.65 23.3234L253.899 8.14845C254.105 7.85322 254.223 7.76465 254.548 7.76465H255.198C255.198 7.76465 255.198 7.85322 255.198 8.17797Z" fill="white"/>
<path d="M275.51 30.4678H274.949C274.506 30.4678 274.358 30.4678 274.329 30.084L272.705 23.0279H262.136L258.15 30.084C258.15 30.3792 257.825 30.4678 257.353 30.4678H256.851C256.467 30.4678 256.467 30.2906 256.615 30.0544L269.162 7.97103C269.216 7.85527 269.305 7.75909 269.416 7.69567C269.527 7.63225 269.655 7.60469 269.782 7.61675H270.402C270.453 7.60368 270.505 7.60103 270.557 7.60895C270.608 7.61687 270.658 7.63521 270.702 7.66283C270.746 7.69046 270.784 7.72679 270.814 7.76963C270.844 7.81247 270.864 7.8609 270.875 7.91199L275.805 29.9954C275.894 30.2906 275.834 30.4678 275.51 30.4678ZM269.9 9.09292C269.787 9.55985 269.629 10.0147 269.428 10.451L262.756 21.7879H272.498L269.93 10.451C269.891 9.99939 269.881 9.54577 269.9 9.09292Z" fill="white"/>
<path d="M299.807 14.2894C299.571 15.9028 298.771 17.3805 297.55 18.4611C296.329 19.5417 294.765 20.1556 293.135 20.1941C293.668 20.4427 294.139 20.8078 294.512 21.2626C294.885 21.7174 295.151 22.2502 295.29 22.8217L297.623 29.9073C297.623 30.1139 297.623 30.3206 297.357 30.3206H296.707C296.206 30.3206 296.087 30.3206 295.969 29.9663L293.844 23.6188C293.63 22.6676 293.063 21.8331 292.257 21.2848C291.451 20.7364 290.467 20.5154 289.504 20.6665H284.16L282.477 30.232C282.477 30.5568 282.271 30.6453 281.975 30.6453H281.296C281.001 30.6453 280.942 30.6453 281.001 30.232L284.869 8.26669C284.869 7.97146 284.869 7.85336 285.311 7.85336H294.493C295.311 7.78452 296.133 7.91475 296.889 8.23291C297.645 8.55108 298.313 9.0477 298.835 9.6803C299.357 10.3129 299.719 11.0626 299.888 11.8653C300.057 12.668 300.03 13.4998 299.807 14.2894ZM294.109 9.15239H286.109L284.367 19.1313H292.279C293.709 19.2089 295.115 18.7395 296.212 17.8184C297.308 16.8972 298.013 15.5933 298.184 14.1713C298.526 13.2238 298.479 12.1792 298.053 11.2661C297.627 10.3531 296.857 9.64615 295.91 9.30001C295.329 9.11253 294.713 9.062 294.109 9.15239Z" fill="white"/>
<path d="M319.057 30.468H318.437C317.965 30.468 317.817 30.468 317.729 30.0842L315.308 22.6443C315.108 21.6918 314.548 20.8533 313.745 20.3033C312.942 19.7533 311.958 19.5343 310.997 19.692H306.805L305.004 30.1137C305.004 30.4385 304.798 30.5565 304.532 30.5565H303.853C303.528 30.5565 303.469 30.5565 303.528 30.1137L307.396 8.1779C307.396 7.85315 307.396 7.76458 307.838 7.76458H308.518C308.783 7.76458 308.901 7.76458 308.842 8.1779L307.041 18.1863H311.795L321.124 8.00076C321.36 7.70553 321.508 7.64648 321.98 7.64648H322.718C323.043 7.64648 323.072 7.85315 322.718 8.05981L313.123 18.5111C313.971 18.6916 314.748 19.114 315.361 19.727C315.974 20.34 316.397 21.1174 316.577 21.9653L319.205 29.9366C319.412 30.2613 319.353 30.468 319.057 30.468Z" fill="white"/>
<path d="M343.62 14.289C343.383 15.9024 342.584 17.3801 341.363 18.4607C340.142 19.5413 338.578 20.1552 336.948 20.1937C337.475 20.4552 337.942 20.8241 338.318 21.2766C338.694 21.7291 338.971 22.2552 339.132 22.8213L341.435 29.9068C341.465 29.95 341.482 30.0012 341.483 30.0538C341.484 30.1065 341.469 30.1582 341.441 30.2025C341.412 30.2467 341.371 30.2816 341.323 30.3025C341.275 30.3235 341.221 30.3296 341.169 30.3202H340.52C340.018 30.3202 339.87 30.3202 339.782 29.9659L337.656 23.6184C337.437 22.6648 336.864 21.8299 336.053 21.2821C335.242 20.7342 334.253 20.5141 333.287 20.6661H327.973L326.26 30.2316C326.26 30.5564 326.083 30.6449 325.788 30.6449H325.138C324.814 30.6449 324.725 30.6449 324.814 30.2316L328.652 8.26628C328.652 7.97105 328.799 7.85296 329.124 7.85296H338.276C339.094 7.78601 339.916 7.91718 340.673 8.23536C341.429 8.55353 342.098 9.04935 342.622 9.6808C343.147 10.3123 343.511 11.0608 343.685 11.8629C343.858 12.6651 343.836 13.4973 343.62 14.289ZM337.892 9.15198H329.921L328.179 19.1308H336.151C337.579 19.2014 338.981 18.7295 340.076 17.8097C341.171 16.8898 341.878 15.5901 342.055 14.1709C342.398 13.2234 342.351 12.1788 341.925 11.2657C341.499 10.3527 340.728 9.64574 339.782 9.2996C339.173 9.10144 338.525 9.05085 337.892 9.15198Z" fill="white"/>
<path d="M364.11 30.4678H363.549C363.106 30.4678 362.958 30.4678 362.899 30.084L361.305 23.0279H350.706L346.72 30.084C346.72 30.3792 346.396 30.4678 345.923 30.4678H345.421C345.038 30.4678 345.038 30.2906 345.185 30.0544L357.851 7.97103C357.896 7.85475 357.978 7.75679 358.085 7.69263C358.192 7.62847 358.317 7.60177 358.441 7.61675H359.091C359.141 7.60368 359.194 7.60103 359.245 7.60895C359.297 7.61687 359.346 7.63521 359.39 7.66283C359.434 7.69046 359.473 7.72679 359.502 7.76963C359.532 7.81247 359.553 7.8609 359.563 7.91199L364.493 29.9954C364.493 30.2906 364.434 30.4678 364.11 30.4678ZM358.53 9.09292C358.393 9.55646 358.226 10.0102 358.028 10.451L351.474 21.7879H361.216L358.589 10.451C358.525 10.0013 358.505 9.54645 358.53 9.09292Z" fill="white"/>
<path d="M390.15 8.17801L386.282 30.1433C386.282 30.4681 386.135 30.5567 385.81 30.5567H385.16C385.071 30.5677 384.981 30.5472 384.906 30.4986C384.83 30.4501 384.774 30.3766 384.747 30.2909L376.303 13.9646C375.536 12.4589 375.004 10.7465 374.473 9.83131C374.266 11.0418 374.119 13.0789 373.794 15.0865L371.137 29.8481C371.137 30.1728 370.96 30.2909 370.664 30.2909H370.015C369.69 30.2909 369.631 30.2909 369.69 29.8481L373.558 7.9123C373.558 7.58754 373.558 7.49897 374.001 7.49897H374.562C374.647 7.48617 374.735 7.49894 374.814 7.53569C374.893 7.57244 374.959 7.63154 375.004 7.70564L383.241 23.6187C384.157 25.3015 384.806 27.1024 385.367 28.1653C385.603 26.7777 385.751 24.6225 386.135 22.4082L388.674 8.17801C388.674 7.88278 388.674 7.79421 389.146 7.79421H389.707C390.12 7.76468 390.209 7.85325 390.15 8.17801Z" fill="white"/>
<path d="M404.824 7.32148C406.414 7.13326 408.018 7.52546 409.342 8.42592C410.665 9.32639 411.619 10.6745 412.028 12.2223C412.028 12.4881 412.028 12.6357 411.733 12.7242L411.172 13.0195C410.847 13.0195 410.758 13.0195 410.64 12.8128C410.285 11.5582 409.498 10.4697 408.417 9.74019C407.336 9.01069 406.032 8.68725 404.736 8.82717C400.632 8.82717 397.945 10.4214 397.443 13.4918C396.676 17.1527 400.071 17.9499 403.702 18.3337C407.334 18.7175 411.378 19.8098 410.493 24.7402C409.784 28.8735 406.743 30.8811 401.104 30.8811C399.343 31.1387 397.55 30.7003 396.106 29.6587C394.662 28.6171 393.68 27.0541 393.369 25.3012C393.369 24.9764 393.369 24.8583 393.723 24.7402L394.373 24.504C394.668 24.504 394.757 24.504 394.845 24.7697C395.086 26.2316 395.886 27.5425 397.076 28.4243C398.267 29.3061 399.754 29.6896 401.222 29.4935C405.857 29.4935 408.456 27.8992 409.046 24.504C409.636 21.1089 406.507 20.1936 403.141 19.7803C399.126 19.3079 395.141 18.186 395.967 13.2261C396.499 9.35859 399.717 7.32148 404.824 7.32148Z" fill="white"/>
<path d="M433.226 8.17768L433.078 8.76814C433.078 9.03385 433.078 9.15195 432.635 9.15195H420.826L419.202 18.2746H429.801C430.126 18.2746 430.185 18.2746 430.126 18.6584V19.2489C430.126 19.5441 430.126 19.6622 429.653 19.6622H419.084L417.431 29.0802H429.83C430.155 29.0802 430.244 29.0802 430.155 29.464V30.0249C430.155 30.3497 429.978 30.4678 429.683 30.4678H416.191C415.866 30.4678 415.807 30.4678 415.866 30.0249L419.733 8.08911C419.733 7.76435 419.734 7.67578 420.176 7.67578H433.255C433.167 7.76435 433.285 7.85292 433.226 8.17768Z" fill="white"/>
<path d="M456.399 8.17808L452.502 30.1434C452.502 30.4682 452.354 30.5567 452.029 30.5567H451.409C451.32 30.5678 451.23 30.5472 451.154 30.4987C451.079 30.4501 451.023 30.3767 450.996 30.291L442.552 13.9646C441.785 12.459 441.224 10.7466 440.722 9.83138C440.486 11.0418 440.308 13.0789 440.013 15.0865L437.356 29.8482C437.356 30.1729 437.179 30.291 436.854 30.291H436.234C435.939 30.291 435.85 30.291 435.939 29.8482L439.895 8.03046C439.895 7.70571 439.895 7.61714 440.368 7.61714H440.899C440.985 7.60434 441.073 7.6171 441.151 7.65385C441.23 7.6906 441.296 7.7497 441.342 7.8238L449.431 23.6188C450.317 25.3016 450.996 27.1025 451.527 28.1949C451.734 26.7777 451.882 24.6521 452.265 22.4378L454.834 8.03046C454.834 7.73523 454.982 7.64666 455.306 7.64666H455.956C456.34 7.76475 456.458 7.85332 456.399 8.17808Z" fill="white"/>
<path d="M119.332 55.5038L118.476 60.2866C117.501 65.8074 113.545 68.7598 107.227 68.7598H99.3742C98.3408 68.7598 98.0751 68.4055 98.2818 67.4312L101.795 47.4735C101.795 47.1184 101.934 46.7773 102.182 46.5235C102.431 46.2696 102.769 46.1231 103.124 46.1154H111.154C117.472 46.0859 120.306 49.8944 119.332 55.5038ZM109.973 51.6658H107.375L105.367 63.1799H107.995C108.989 63.2726 109.981 62.9771 110.762 62.3553C111.544 61.7335 112.054 60.8335 112.187 59.8437L113.014 55.2381C113.486 52.8762 112.542 51.6658 109.973 51.6658Z" fill="white"/>
<path d="M141.713 47.4144L141.211 50.3668C141.004 51.4296 140.591 51.7544 139.617 51.7544H131.144L130.671 54.7067H137.432C138.436 54.7067 138.702 55.0315 138.554 56.0352L138.052 58.9876C137.845 60.0209 137.462 60.3752 136.458 60.3752H129.638L129.106 63.3275H137.963C138.938 63.3275 139.262 63.6523 139.056 64.656L138.524 67.6084C138.524 68.5826 137.963 68.9369 136.93 68.9369H123.143C122.139 68.9369 121.844 68.5826 122.05 67.6084L125.564 47.6506C125.741 46.6764 126.125 46.3221 127.158 46.3221H140.532C141.713 46.0859 141.713 46.4402 141.713 47.4144Z" fill="white"/>
<path d="M166.454 47.385L155.855 67.6675C155.713 68.032 155.452 68.338 155.115 68.5362C154.778 68.7343 154.383 68.8131 153.996 68.7598H150.01C149.095 68.7598 148.711 68.5236 148.534 67.7265L145.02 47.385C144.843 46.5288 145.198 46.0859 146.172 46.0859H149.744C151.309 46.0859 151.722 46.4402 151.87 47.4145L152.962 58.3676C153.08 59.733 153.08 61.106 152.962 62.4714H153.257C153.58 61.0673 154.024 59.6941 154.586 58.3676L159.575 47.4145C160.018 46.4402 160.491 46.0859 162.055 46.0859H165.775C166.809 46.0859 166.927 46.5288 166.454 47.385Z" fill="white"/>
<path d="M179.237 45.6133C185.525 45.6133 188.448 49.4218 187.503 54.9426L186.47 60.6997C185.496 66.2205 181.539 69.2614 175.221 69.2614C168.903 69.2614 166.01 65.5415 166.925 60.0206L167.929 54.116C168.933 48.7427 172.919 45.6133 179.237 45.6133ZM178.38 51.1932C177.466 51.0882 176.545 51.3347 175.805 51.8829C175.065 52.431 174.561 53.2398 174.395 54.1455L173.273 60.4635C172.919 62.4711 174.011 63.4158 176.225 63.4158C177.14 63.5208 178.061 63.2743 178.801 62.7261C179.541 62.178 180.045 61.3692 180.211 60.4635L181.333 54.1455C181.657 52.256 180.506 51.1932 178.38 51.1932Z" fill="white"/>
<path d="M210.795 54.5291C210.499 56.7634 209.344 58.7941 207.574 60.1891C205.804 61.5841 203.559 62.2333 201.318 61.9985H197.421L196.446 67.4603C196.269 68.4346 195.885 68.7889 194.852 68.7889H191.25C190.217 68.7889 189.922 68.4346 190.128 67.4603L193.642 47.5026C193.848 46.5283 194.232 46.1741 195.236 46.1741H204.093C209.023 46.0855 211.651 49.4807 210.795 54.5291ZM204.329 54.0568C204.408 53.832 204.442 53.5938 204.428 53.3559C204.414 53.1181 204.353 52.8853 204.249 52.6711C204.145 52.4569 203.999 52.2656 203.82 52.1081C203.641 51.9507 203.433 51.8303 203.207 51.754C202.925 51.6975 202.634 51.6975 202.351 51.754H199.221L198.395 56.4777H201.524C202.21 56.4972 202.878 56.2596 203.397 55.8116C203.916 55.3636 204.248 54.7376 204.329 54.0568Z" fill="white"/>
<path d="M225.378 45.6133C230.102 45.6133 232.287 47.3552 233.35 50.337C233.674 51.2817 233.35 51.577 232.405 51.9903L229.246 53.1417C228.301 53.496 227.976 53.3779 227.652 52.4627C227.393 51.9122 226.97 51.4551 226.442 51.1539C225.913 50.8527 225.305 50.7221 224.699 50.7799C222.515 50.7799 221.57 51.3408 221.393 52.4627C221.216 53.5846 222.928 54.116 225.26 54.4407C228.833 54.9426 233.379 56.6255 232.346 62.4415C231.49 67.1062 227.475 69.1433 221.57 69.1433C216.817 69.1433 213.421 67.431 212.713 64.1834C212.713 63.2387 212.92 62.7663 213.894 62.4415L217.112 61.3197C218.116 61.0244 218.558 61.113 218.854 62.0282C219.168 62.6049 219.649 63.0736 220.233 63.3737C220.818 63.6738 221.479 63.7913 222.131 63.7111C224.316 63.7111 225.644 63.2977 225.91 61.9101C226.175 60.5225 224.522 60.3159 222.485 60.0206C218.854 59.5187 213.894 58.3378 214.957 52.0494C215.695 48.0047 219.267 45.6133 225.378 45.6133Z" fill="white"/>
<path d="M261.871 68.7599H258.535C256.911 68.7599 256.557 68.4056 256.41 67.4314L256.173 65.1285H249.235L248.114 67.4314C247.641 68.4056 247.169 68.7599 245.545 68.7599H242.091C241.117 68.7599 241.028 68.3171 241.5 67.4609L252.365 47.2374C252.492 46.8665 252.744 46.5515 253.078 46.3467C253.412 46.1419 253.807 46.0601 254.195 46.1155H257.827C258.742 46.1155 259.155 46.3222 259.303 47.1784L263.141 67.4904C263.2 68.3171 262.757 68.7599 261.871 68.7599ZM255.081 51.9021H254.815C254.494 53.4262 254.009 54.911 253.369 56.3306L251.568 60.0801H255.553L255.052 56.3601C254.884 54.8782 254.894 53.3817 255.081 51.9021Z" fill="white"/>
<path d="M290.362 52.3448C290.26 53.273 289.939 54.1636 289.425 54.9437C288.912 55.7238 288.221 56.3711 287.409 56.8323C288.355 57.4424 289.062 58.3594 289.412 59.4293C289.761 60.4992 289.732 61.6567 289.328 62.7075C288.62 66.8112 285.018 68.6121 280.471 68.6121H271.054C270.02 68.6121 269.755 68.2579 269.932 67.2541L273.445 47.2963C273.652 46.2925 274.035 45.9678 275.069 45.9678H284.398C288.827 46.0563 291.041 48.5658 290.362 52.3448ZM281.239 59.8732H277.519L276.84 63.5932H280.56C280.816 63.6442 281.08 63.6431 281.336 63.59C281.592 63.5369 281.835 63.4329 282.049 63.2842C282.264 63.1354 282.447 62.945 282.587 62.7242C282.726 62.5034 282.82 62.2567 282.863 61.9989C282.877 61.9109 282.877 61.8212 282.863 61.7332C283.217 60.4342 282.597 59.8732 281.239 59.8732ZM282.125 51.2229H279.172L278.552 54.7362H281.505C282.029 54.8124 282.562 54.6783 282.988 54.3631C283.414 54.0478 283.698 53.5771 283.778 53.0534C283.985 51.8134 283.424 51.2524 282.095 51.2524L282.125 51.2229Z" fill="white"/>
<defs>
<radialGradient id="paint0_radial_107_32" cx="0" cy="0" r="1" gradientUnits="userSpaceOnUse" gradientTransform="translate(38.2326 46.1155) scale(34.5718 34.5718)">
<stop stop-color="#FCEA0D"/>
<stop offset="0.07" stop-color="#FAD90D"/>
<stop offset="0.53" stop-color="#ED6910"/>
<stop offset="0.85" stop-color="#E52212"/>
<stop offset="1" stop-color="#E20613"/>
</radialGradient>
<radialGradient id="paint1_radial_107_32" cx="0" cy="0" r="1" gradientUnits="userSpaceOnUse" gradientTransform="translate(42.1602 38.026) scale(33.2137 33.2137)">
<stop stop-color="#FCEA0D"/>
<stop offset="0.07" stop-color="#FAD90D"/>
<stop offset="0.53" stop-color="#ED6910"/>
<stop offset="0.85" stop-color="#E52212"/>
<stop offset="1" stop-color="#E20613"/>
</radialGradient>
<radialGradient id="paint2_radial_107_32" cx="0" cy="0" r="1" gradientUnits="userSpaceOnUse" gradientTransform="translate(42.2466 47.9164) scale(28.7852 28.7852)">
<stop stop-color="#FCEA0D"/>
<stop offset="0.07" stop-color="#FAD90D"/>
<stop offset="0.53" stop-color="#ED6910"/>
<stop offset="0.85" stop-color="#E52212"/>
<stop offset="1" stop-color="#E20613"/>
</radialGradient>
<radialGradient id="paint3_radial_107_32" cx="0" cy="0" r="1" gradientUnits="userSpaceOnUse" gradientTransform="translate(45.082 39.9748) scale(28.0471 28.0471)">
<stop stop-color="#FCEA0D"/>
<stop offset="0.07" stop-color="#FAD90D"/>
<stop offset="0.53" stop-color="#ED6910"/>
<stop offset="0.85" stop-color="#E52212"/>
<stop offset="1" stop-color="#E20613"/>
</radialGradient>
</defs>
</svg>
