<svg width="42" height="40" fill="none" xmlns="http://www.w3.org/2000/svg"><path d="M14.595 24.983c.34-1.864.632-3.48 1.459-6.884-1.8-1.433-3.519-2.696-5.351-4.451a68.872 68.872 0 00-6.227 2.448 28.49 28.49 0 00-.925 7.008 46.368 46.368 0 004.962 4.159c1.898-.817 3.05-1.233 6-2.28h.082zm-5.482 8.44a17.613 17.613 0 01-1.443-5.498 46.37 46.37 0 01-4.865-4.066A9.087 9.087 0 000 26.184a18.23 18.23 0 002.854 5.791 29.934 29.934 0 004.476 3.08 13.484 13.484 0 011.783-1.632zM42 18.683a20.484 20.484 0 00-1.622-8.085 12.104 12.104 0 00-1.621-2.418c-.041.421-.173.83-.388 1.202a3.13 3.13 0 01-.861.954c.557 2.16.76 4.389.6 6.607a13.95 13.95 0 012.432 4.62 3.888 3.888 0 001.444-2.386v-.447l.016-.046zM7.719 35.673a28.175 28.175 0 01-4.378-2.88c.123.434.37.829.713 1.14.767.684 1.58 1.322 2.432 1.91.931.644 1.913 1.22 2.936 1.724.94.416 2.189.94 3.243 1.279 0 0-2.79-1.54-3.39-1.926-.6-.385-1.54-1.216-1.54-1.216l-.016-.031zm29.448-7.008a23.958 23.958 0 002.757-6.407 15.368 15.368 0 00-2.627-4.466 46.145 46.145 0 01-5.303 2.556 42.553 42.553 0 01-2.27 6.654 15.386 15.386 0 012.708 3.804c1.64-.57 3.23-1.265 4.752-2.08l-.017-.06zm-9.843 7.347a30.129 30.129 0 003.99-4.62 15.83 15.83 0 00-2.806-3.666c-2.124.708-3.243 1.232-6.665 2.28-1.103 3.08-1.281 3.757-1.622 4.897 1.008.677 1.9 1.498 2.644 2.433 4.102-1.17 4.378-1.294 4.443-1.294l.016-.03zm9.973-4.328c2.694-3.305 4.302-7.29 4.622-11.459a3.895 3.895 0 01-1.379 2.202 23.23 23.23 0 01-2.757 6.392 6.419 6.419 0 01-1.135 3.527c.25-.209.488-.43.714-.662h-.065zm-17.221 8.224a12.3 12.3 0 001.994-2.28 13.329 13.329 0 00-2.74-2.31 37.463 37.463 0 00-3.892 1.402 6.72 6.72 0 002.238 3.08 7.67 7.67 0 002.367.14l.033-.032zm10.362-2.818a23.666 23.666 0 005.48-4.174 5.75 5.75 0 00.974-3.435 39.948 39.948 0 01-4.67 2.003 30.09 30.09 0 01-4.395 4.62 9.024 9.024 0 01-1.152 2.403 17.422 17.422 0 003.681-1.325l.082-.092zM20.481 40c1.9-.118 3.756-.59 5.465-1.385a7.52 7.52 0 00.892-1.895c-1.622.478-1.622.478-4.103 1.155 0 0-1.313 1.248-2.205 2.018l-.05.108z" fill="url(#paint0_radial_107_311)"/><path d="M38.233 7.408a19.684 19.684 0 00-4.183-5.006A24.517 24.517 0 0029.59 0c0 .37-.113.816-.178 1.263a14.104 14.104 0 012.903 4.62 43.023 43.023 0 014.767 3.65c.924-.94 1.33-1.648 1.2-2.094l-.048-.031zm-1.054 9.534c.18-2.224.015-4.46-.486-6.639a46.15 46.15 0 00-4.865-3.773 37.49 37.49 0 01-4.54 2.095A42.07 42.07 0 0126.655 15a58.52 58.52 0 015.173 4.482 46.47 46.47 0 005.319-2.572l.032.03zm-8.74 9.995a46.303 46.303 0 002.205-6.684 69.292 69.292 0 00-5.319-4.513c-1.978.678-1.978.678-7.572 2.526-.552 2.28-1.087 4.436-1.622 6.885 3.486 2.541 4.67 3.496 5.286 3.958 2.465-.755 4.46-1.34 6.957-2.172h.065zm-9.422 7.87c.309-1.355.568-2.079 1.411-4.99l-5.562-4.004c-2.562.893-3.94 1.386-5.919 2.233.097 1.857.485 3.69 1.152 5.437 1.621.909 2.27 1.34 4.864 2.742 1.33-.555 2.708-1.048 4.103-1.54l-.049.123zm-4.492 1.772c-1.394-.74-2.95-1.54-4.864-2.634-.58.476-1.121.99-1.622 1.54a14.958 14.958 0 004.93 3.25c1.32.415 2.669.74 4.038.97a4.414 4.414 0 01-1.233-1.124 15.938 15.938 0 01-1.184-1.94l-.065-.062z" fill="url(#paint1_radial_107_311)"/><path d="M19.248 39.769a6.368 6.368 0 01-1.524-.2 6.53 6.53 0 01-2.076-2.788 39.804 39.804 0 013.616-1.279 14.01 14.01 0 012.53 2.08 13.563 13.563 0 01-1.832 2.094h-.714v.093zm1.832-.123c.763-.663 1.622-1.464 1.817-1.633l1.962-.524 1.767-.523a10.38 10.38 0 01-.68 1.54 14.314 14.314 0 01-4.866 1.14zm6.033-1.54a8.45 8.45 0 00.892-1.834 30.793 30.793 0 004.33-4.62 45.097 45.097 0 004.378-1.848 5.804 5.804 0 01-.957 3.08 24.062 24.062 0 01-5.449 4.082c-1.004.49-2.065.867-3.162 1.124l-.032.015zm-17.254-.509l-.47-.2a24.513 24.513 0 01-2.806-1.71 20.424 20.424 0 01-2.319-1.802l-.26-.277a30.618 30.618 0 003.666 2.295c.13.123.892.8 1.443 1.232a4.9 4.9 0 00.746.462zm13.054-.524a13.27 13.27 0 00-2.497-2.294l1.621-4.621a78.288 78.288 0 004.524-1.54l2.011-.678a15.233 15.233 0 012.595 3.435 29.88 29.88 0 01-3.876 4.497l-4.28 1.232-.098-.03zM7.297 34.78A28.735 28.735 0 013 31.868a18.25 18.25 0 01-2.773-5.684 8.858 8.858 0 012.562-2.14 46.899 46.899 0 004.702 3.942 16.255 16.255 0 001.395 5.283c-.44.339-.848.715-1.216 1.125l-.373.385zm30.162-3.543a6.97 6.97 0 00.486-2.356 21.973 21.973 0 002.74-6.346c.356-.309.667-.66.925-1.047-.495 3.53-1.923 6.885-4.151 9.75zm-4.865-.724a15.703 15.703 0 00-2.514-3.542 38.328 38.328 0 002.19-6.484 39.948 39.948 0 005.027-2.465 14.948 14.948 0 012.432 4.282 24.222 24.222 0 01-2.708 6.253 39.21 39.21 0 01-4.46 1.956h.033zM8.545 27.078a46.902 46.902 0 01-4.864-4.005c.02-2.289.319-4.568.891-6.792a167.548 167.548 0 016.065-2.418c1.8 1.648 3.406 2.926 5.108 4.282-.794 3.311-1.151 4.96-1.41 6.715a58.508 58.508 0 00-5.79 2.218zm32.108-5.884a14.932 14.932 0 00-2.286-4.25 21.06 21.06 0 00-.633-6.53c.542-.468.92-1.08 1.087-1.757a9.96 9.96 0 011.281 2.126 20.309 20.309 0 011.622 7.993v.447a3.43 3.43 0 01-1.103 1.987l.032-.016z" fill="url(#paint2_radial_107_311)"/><path d="M16.362 39.383a28.96 28.96 0 01-3.243-.863 14.885 14.885 0 01-4.865-3.08l.422-.354c.308-.308.567-.57.989-.924 1.8 1.032 3.243 1.833 4.654 2.541.39.677.84 1.321 1.346 1.925.216.265.449.517.697.755zm-1.395-3.373c-2.465-1.355-3.243-1.771-4.67-2.65a17.498 17.498 0 01-1.103-5.205c1.881-.785 3.244-1.309 5.676-2.14l2.968 2.14 2.367 1.663-.616 2.08c-.34 1.155-.535 1.802-.746 2.664-1.281.416-2.627.863-3.876 1.448zm6.487-7.177l-.34-.247c-.698-.554-2.012-1.54-4.866-3.573.487-2.372.99-4.466 1.525-6.653 5.4-1.787 5.48-1.833 7.362-2.465a67.75 67.75 0 015.14 4.36 45.365 45.365 0 01-2.14 6.468c-1.622.554-3.049.986-4.557 1.448l-2.124.662zM31.8 19.19a57.654 57.654 0 00-5.044-4.358c.35-2.038.54-4.097.568-6.161a36.814 36.814 0 004.378-1.956 45.692 45.692 0 014.687 3.604c.483 2.113.636 4.282.454 6.438a49.093 49.093 0 01-5.076 2.449l.033-.016zm5.221-9.95a41.331 41.331 0 00-4.589-3.48 13.597 13.597 0 00-2.838-4.543c.021-.254.059-.506.114-.755V.278c1.44.627 2.809 1.39 4.086 2.28a19.107 19.107 0 014.249 4.928c.065.216-.065.847-1.022 1.756z" fill="url(#paint3_radial_107_311)"/><path opacity=".1" d="M18.875 34.624c-1.33.4-2.627.862-3.908 1.386-2.465-1.355-3.243-1.771-4.67-2.65a17.496 17.496 0 01-1.103-5.205c1.881-.785 3.243-1.309 5.676-2.14l2.967 2.14 2.368 1.663-.616 2.08c-.308 1.201-.503 1.848-.714 2.726zm7.67-6.038c-1.167.416-2.384.863-4.508 1.54-.989 2.912-1.216 3.62-1.621 4.621a15.23 15.23 0 012.286 1.987 28.299 28.299 0 007.54-6.746 18.419 18.419 0 00-1.75-2.08l-1.947.678zM8.708 35.163l-.406.4a14.71 14.71 0 004.849 2.942 30.11 30.11 0 003.243.816 8.44 8.44 0 01-.649-.662 14.516 14.516 0 01-1.346-1.94 237.786 237.786 0 01-4.654-2.542c-.36.295-.686.625-.973.986h-.064zM31.897 19.19c1.621-.723 2.805-1.232 4.021-1.879.311-1.72.468-3.46.47-5.205v-1.941A47.068 47.068 0 0031.783 6.7a36.818 36.818 0 01-4.378 1.956 39.561 39.561 0 01-.633 6.16 55.853 55.853 0 015.076 4.359l.049.015zm1.946-16.664a23.927 23.927 0 00-4.12-2.249v.185a4.247 4.247 0 01-.113.755 13.633 13.633 0 012.854 4.62 45.827 45.827 0 013.681 2.726 27.55 27.55 0 00-.973-4.728c-.421-.385-.86-.786-1.362-1.201l.033-.108zm-8.627 13.368c-1.85.632-1.963.678-7.363 2.465-.535 2.187-1.037 4.281-1.524 6.653 2.773 2.018 4.087 3.08 4.865 3.573l.34.247 2.19-.662c1.508-.462 2.919-.894 4.573-1.448a45.286 45.286 0 002.124-6.469 67.836 67.836 0 00-5.205-4.359zm-21.47 7.208a47.321 47.321 0 004.864 4.051c1.817-.77 2.968-1.232 5.79-2.218.324-1.802.616-3.404 1.41-6.684a123.077 123.077 0 01-5.108-4.282c-2.53.924-3.957 1.54-6 2.387a27.884 27.884 0 00-.957 6.746zm15.518 12.491c-1.621.508-2.465.816-3.616 1.294a7.038 7.038 0 001.622 2.48 27.98 27.98 0 004.232-1.91 17.436 17.436 0 00-2.238-1.94v.076zm12.973-15.032a41.995 41.995 0 01-2.189 6.484c.454.524.876 1.032 1.281 1.54a29.007 29.007 0 004.233-9.533c-.909.37-1.865.8-3.341 1.432l.016.077zM9.86 37.596a9.788 9.788 0 01-.843-.523c-.535-.431-1.314-1.11-1.427-1.232a29.379 29.379 0 01-3.665-2.295l.26.277c.748.679 1.55 1.302 2.4 1.864.9.634 1.85 1.205 2.837 1.71l.438.2zm-2.595-2.818l.406-.339c.368-.41.775-.785 1.216-1.124a16.255 16.255 0 01-1.395-5.298 46.743 46.743 0 01-4.702-3.928 8.632 8.632 0 00-2.562 2.095A18.257 18.257 0 003 31.82a28.693 28.693 0 004.297 2.957h-.033z" fill="#F1F2F3"/><path opacity=".1" d="M30.502 17.913c-1.216-1.093-2.286-1.956-3.697-3.08.362-2.037.562-4.096.6-6.161a36.82 36.82 0 004.378-1.956 26.79 26.79 0 012.27 1.617 26.304 26.304 0 01-3.551 9.58zM29.724.278v.185a4.256 4.256 0 01-.114.755 13.634 13.634 0 012.854 4.62c.568.4 1.087.786 1.703 1.201.081-.847.113-1.678.113-2.54V2.957l-.405-.354A24.347 24.347 0 0029.724.278zM8.237 31.621a17.047 17.047 0 01-.746-3.59A46.886 46.886 0 012.79 24.09a8.872 8.872 0 00-2.562 2.095 17.788 17.788 0 002.594 5.39c.892 0 1.784.108 2.676.108.892 0 1.832.016 2.74-.061zm-4.492-8.518a47.321 47.321 0 004.865 4.051c1.817-.77 2.968-1.232 5.79-2.218.324-1.802.616-3.404 1.41-6.684a123.077 123.077 0 01-5.108-4.282c-2.53.924-3.957 1.54-6 2.387a27.884 27.884 0 00-.957 6.746zm14.157-4.62c-.535 2.187-1.038 4.282-1.524 6.653a231.876 231.876 0 013.875 2.865c3.714-2.112 6.88-4.991 9.26-8.425-1.152-1.047-2.254-2.002-4.265-3.557-1.849.508-1.962.554-7.41 2.34l.064.124zm-3.049 7.7c-2.416.848-3.794 1.356-5.675 2.142.117 1.056.301 2.106.551 3.142a29.63 29.63 0 008.951-2.757l-.843-.54-2.983-1.986z" fill="#F1F2F3"/><defs><radialGradient id="paint0_radial_107_311" cx="0" cy="0" r="1" gradientUnits="userSpaceOnUse" gradientTransform="matrix(18.9891 0 0 18.0354 21 24.059)"><stop stop-color="#FCEA0D"/><stop offset=".07" stop-color="#FAD90D"/><stop offset=".53" stop-color="#ED6910"/><stop offset=".85" stop-color="#E52212"/><stop offset="1" stop-color="#E20613"/></radialGradient><radialGradient id="paint1_radial_107_311" cx="0" cy="0" r="1" gradientUnits="userSpaceOnUse" gradientTransform="matrix(18.2431 0 0 17.3269 23.152 19.837)"><stop stop-color="#FCEA0D"/><stop offset=".07" stop-color="#FAD90D"/><stop offset=".53" stop-color="#ED6910"/><stop offset=".85" stop-color="#E52212"/><stop offset="1" stop-color="#E20613"/></radialGradient><radialGradient id="paint2_radial_107_311" cx="0" cy="0" r="1" gradientUnits="userSpaceOnUse" gradientTransform="matrix(15.8107 0 0 15.0166 23.205 24.998)"><stop stop-color="#FCEA0D"/><stop offset=".07" stop-color="#FAD90D"/><stop offset=".53" stop-color="#ED6910"/><stop offset=".85" stop-color="#E52212"/><stop offset="1" stop-color="#E20613"/></radialGradient><radialGradient id="paint3_radial_107_311" cx="0" cy="0" r="1" gradientUnits="userSpaceOnUse" gradientTransform="matrix(15.4053 0 0 14.6316 24.762 20.855)"><stop stop-color="#FCEA0D"/><stop offset=".07" stop-color="#FAD90D"/><stop offset=".53" stop-color="#ED6910"/><stop offset=".85" stop-color="#E52212"/><stop offset="1" stop-color="#E20613"/></radialGradient></defs></svg>